<svg width="20" height="20" viewBox="0 0 20 20" fill="none" xmlns="http://www.w3.org/2000/svg">
<path d="M6.66675 14.1666V5.83329M16.6667 1.66663V3.33329M16.6667 3.33329V4.99996M16.6667 3.33329H15.0001M16.6667 3.33329H18.3334M11.6667 9.99996H12.5001M11.6667 9.99996C10.7463 9.99996 10.0001 9.25377 10.0001 8.33329V7.49996C10.0001 6.57948 10.7463 5.83329 11.6667 5.83329H12.5001C13.4206 5.83329 14.1667 6.57948 14.1667 7.49996V8.33329C14.1667 9.25377 13.4206 9.99996 12.5001 9.99996M11.6667 9.99996C10.7463 9.99996 10.0001 10.7462 10.0001 11.6666V12.5C10.0001 13.4204 10.7463 14.1666 11.6667 14.1666H12.5001C13.4206 14.1666 14.1667 13.4204 14.1667 12.5V11.6666C14.1667 10.7462 13.4206 9.99996 12.5001 9.99996M18.1667 8.33329C18.276 8.87181 18.3334 9.42918 18.3334 9.99996C18.3334 14.6023 14.6025 18.3333 10.0001 18.3333C5.39771 18.3333 1.66675 14.6023 1.66675 9.99996C1.66675 5.39759 5.39771 1.66663 10.0001 1.66663C10.5709 1.66663 11.1282 1.72401 11.6667 1.83332" stroke="#0A0A0A" stroke-width="1.5" stroke-linecap="round" stroke-linejoin="round"/>
</svg>
