<svg width="20" height="20" viewBox="0 0 20 20" fill="none" xmlns="http://www.w3.org/2000/svg">
<g clip-path="url(#clip0_24654_95628)">
<path d="M1.6665 10.8333C2.10853 10.8333 2.53245 10.6577 2.84502 10.3451C3.15758 10.0326 3.33317 9.60865 3.33317 9.16663V5.83329C3.33317 5.39127 3.50877 4.96734 3.82133 4.65478C4.13389 4.34222 4.55781 4.16663 4.99984 4.16663C5.44186 4.16663 5.86579 4.34222 6.17835 4.65478C6.49091 4.96734 6.6665 5.39127 6.6665 5.83329V16.6666C6.6665 17.1087 6.8421 17.5326 7.15466 17.8451C7.46722 18.1577 7.89114 18.3333 8.33317 18.3333C8.7752 18.3333 9.19912 18.1577 9.51168 17.8451C9.82424 17.5326 9.99984 17.1087 9.99984 16.6666V3.33329C9.99984 2.89127 10.1754 2.46734 10.488 2.15478C10.8006 1.84222 11.2245 1.66663 11.6665 1.66663C12.1085 1.66663 12.5325 1.84222 12.845 2.15478C13.1576 2.46734 13.3332 2.89127 13.3332 3.33329V14.1666C13.3332 14.6087 13.5088 15.0326 13.8213 15.3451C14.1339 15.6577 14.5578 15.8333 14.9998 15.8333C15.4419 15.8333 15.8658 15.6577 16.1783 15.3451C16.4909 15.0326 16.6665 14.6087 16.6665 14.1666V10.8333C16.6665 10.3913 16.8421 9.96734 17.1547 9.65478C17.4672 9.34222 17.8911 9.16663 18.3332 9.16663" stroke="#0A0A0A" stroke-width="1.5" stroke-linecap="round" stroke-linejoin="round"/>
</g>
<defs>
<clipPath id="clip0_24654_95628">
<rect width="20" height="20" fill="white"/>
</clipPath>
</defs>
</svg>
