<svg width="20" height="20" viewBox="0 0 20 20" fill="none" xmlns="http://www.w3.org/2000/svg">
<path d="M12.8975 10.7415L14.16 17.8465C14.1741 17.9302 14.1624 18.0162 14.1263 18.093C14.0903 18.1698 14.0317 18.2338 13.9583 18.2764C13.8849 18.319 13.8002 18.3381 13.7157 18.3313C13.6311 18.3245 13.5506 18.292 13.485 18.2382L10.5017 15.999C10.3576 15.8914 10.1827 15.8333 10.0029 15.8333C9.82314 15.8333 9.64818 15.8914 9.50416 15.999L6.51583 18.2374C6.45026 18.2911 6.36988 18.3235 6.28541 18.3303C6.20094 18.3371 6.11639 18.3181 6.04305 18.2756C5.96971 18.2331 5.91106 18.1693 5.87493 18.0926C5.8388 18.016 5.8269 17.9301 5.84083 17.8465L7.1025 10.7415M15 6.66663C15 9.42805 12.7614 11.6666 10 11.6666C7.23858 11.6666 5 9.42805 5 6.66663C5 3.9052 7.23858 1.66663 10 1.66663C12.7614 1.66663 15 3.9052 15 6.66663Z" stroke="#0A0A0A" stroke-width="1.5" stroke-linecap="round" stroke-linejoin="round"/>
</svg>
