<svg width="20" height="20" viewBox="0 0 20 20" fill="none" xmlns="http://www.w3.org/2000/svg">
<path d="M8.58321 17.5C8.7227 17.7537 8.92775 17.9653 9.17695 18.1127C9.42616 18.26 9.71036 18.3378 9.99988 18.3378C10.2894 18.3378 10.5736 18.26 10.8228 18.1127C11.072 17.9653 11.2771 17.7537 11.4165 17.5M3.33317 1.66667C2.33317 3.08334 1.6665 4.75001 1.6665 6.66667M18.3332 6.66667C18.3332 4.75001 17.6665 3.08334 16.6665 1.66667M4.99984 6.66667C4.99984 5.34059 5.52662 4.06882 6.4643 3.13114C7.40199 2.19346 8.67375 1.66667 9.99984 1.66667C11.3259 1.66667 12.5977 2.19346 13.5354 3.13114C14.4731 4.06882 14.9998 5.34059 14.9998 6.66667C14.9998 12.5 17.4998 14.1667 17.4998 14.1667H2.49984C2.49984 14.1667 4.99984 12.5 4.99984 6.66667Z" stroke="#0A0A0A" stroke-width="1.5" stroke-linecap="round" stroke-linejoin="round"/>
</svg>
