<svg width="20" height="20" viewBox="0 0 20 20" fill="none" xmlns="http://www.w3.org/2000/svg">
<path d="M9.99984 17.5L9.91646 17.3749C9.33759 16.5066 9.04816 16.0725 8.66575 15.7582C8.32722 15.4799 7.93714 15.2712 7.51784 15.1438C7.04421 15 6.52243 15 5.47886 15H4.33317C3.39975 15 2.93304 15 2.57652 14.8183C2.26292 14.6586 2.00795 14.4036 1.84816 14.09C1.6665 13.7335 1.6665 13.2668 1.6665 12.3333V5.16667C1.6665 4.23325 1.6665 3.76654 1.84816 3.41002C2.00795 3.09641 2.26292 2.84144 2.57652 2.68166C2.93304 2.5 3.39975 2.5 4.33317 2.5H4.6665C6.53335 2.5 7.46677 2.5 8.17981 2.86331C8.80701 3.18289 9.31695 3.69282 9.63653 4.32003C9.99984 5.03307 9.99984 5.96649 9.99984 7.83333M9.99984 17.5V7.83333M9.99984 17.5L10.0832 17.3749C10.6621 16.5066 10.9515 16.0725 11.3339 15.7582C11.6725 15.4799 12.0625 15.2712 12.4818 15.1438C12.9555 15 13.4772 15 14.5208 15H15.6665C16.5999 15 17.0666 15 17.4232 14.8183C17.7368 14.6586 17.9917 14.4036 18.1515 14.09C18.3332 13.7335 18.3332 13.2668 18.3332 12.3333V5.16667C18.3332 4.23325 18.3332 3.76654 18.1515 3.41002C17.9917 3.09641 17.7368 2.84144 17.4232 2.68166C17.0666 2.5 16.5999 2.5 15.6665 2.5H15.3332C13.4663 2.5 12.5329 2.5 11.8199 2.86331C11.1927 3.18289 10.6827 3.69282 10.3631 4.32003C9.99984 5.03307 9.99984 5.96649 9.99984 7.83333" stroke="#171717" stroke-width="1.5" stroke-linecap="round" stroke-linejoin="round"/>
</svg>
