<svg width="20" height="20" viewBox="0 0 20 20" fill="none" xmlns="http://www.w3.org/2000/svg">
<path d="M13.3332 16.6665V3.33317C13.3332 2.89114 13.1576 2.46722 12.845 2.15466C12.5325 1.8421 12.1085 1.6665 11.6665 1.6665H8.33317C7.89114 1.6665 7.46722 1.8421 7.15466 2.15466C6.8421 2.46722 6.6665 2.89114 6.6665 3.33317V16.6665M3.33317 4.99984H16.6665C17.587 4.99984 18.3332 5.74603 18.3332 6.6665V14.9998C18.3332 15.9203 17.587 16.6665 16.6665 16.6665H3.33317C2.4127 16.6665 1.6665 15.9203 1.6665 14.9998V6.6665C1.6665 5.74603 2.4127 4.99984 3.33317 4.99984Z" stroke="#0A0A0A" stroke-width="1.5" stroke-linecap="round" stroke-linejoin="round"/>
</svg>
