<svg width="20" height="20" viewBox="0 0 20 20" fill="none" xmlns="http://www.w3.org/2000/svg">
<g clip-path="url(#clip0_24626_64539)">
<path d="M4.99984 18.3334V3.33341C4.99984 2.89139 5.17543 2.46746 5.48799 2.1549C5.80055 1.84234 6.22448 1.66675 6.6665 1.66675H13.3332C13.7752 1.66675 14.1991 1.84234 14.5117 2.1549C14.8242 2.46746 14.9998 2.89139 14.9998 3.33341V18.3334M4.99984 18.3334H14.9998M4.99984 18.3334H3.33317C2.89114 18.3334 2.46722 18.1578 2.15466 17.8453C1.8421 17.5327 1.6665 17.1088 1.6665 16.6667V11.6667C1.6665 11.2247 1.8421 10.8008 2.15466 10.4882C2.46722 10.1757 2.89114 10.0001 3.33317 10.0001H4.99984M14.9998 18.3334H16.6665C17.1085 18.3334 17.5325 18.1578 17.845 17.8453C18.1576 17.5327 18.3332 17.1088 18.3332 16.6667V9.16675C18.3332 8.72472 18.1576 8.3008 17.845 7.98824C17.5325 7.67568 17.1085 7.50008 16.6665 7.50008H14.9998M8.33317 5.00008H11.6665M8.33317 8.33341H11.6665M8.33317 11.6667H11.6665M8.33317 15.0001H11.6665" stroke="#0A0A0A" stroke-width="1.5" stroke-linecap="round" stroke-linejoin="round"/>
</g>
<defs>
<clipPath id="clip0_24626_64539">
<rect width="20" height="20" fill="white"/>
</clipPath>
</defs>
</svg>
