<svg width="20" height="20" viewBox="0 0 20 20" fill="none" xmlns="http://www.w3.org/2000/svg">
<path d="M4.1665 10.8333H6.6665M1.6665 7.5L3.33317 8.33333L4.39204 5.15672C4.6106 4.50104 4.71988 4.1732 4.92258 3.93082C5.10157 3.71678 5.33143 3.5511 5.59109 3.44898C5.88514 3.33333 6.23071 3.33333 6.92186 3.33333H13.0778C13.769 3.33333 14.1145 3.33333 14.4086 3.44898C14.6682 3.5511 14.8981 3.71678 15.0771 3.93082C15.2798 4.1732 15.3891 4.50104 15.6076 5.15672L16.6665 8.33333L18.3332 7.5M13.3332 10.8333H15.8332M5.6665 8.33333H14.3332C15.7333 8.33333 16.4334 8.33333 16.9681 8.60582C17.4386 8.8455 17.821 9.22795 18.0607 9.69836C18.3332 10.2331 18.3332 10.9332 18.3332 12.3333V14.5833C18.3332 14.9705 18.3332 15.1641 18.3011 15.3251C18.1696 15.9863 17.6528 16.5031 16.9917 16.6346C16.8307 16.6667 16.637 16.6667 16.2498 16.6667H15.8332C14.9127 16.6667 14.1665 15.9205 14.1665 15C14.1665 14.7699 13.98 14.5833 13.7498 14.5833H6.24984C6.01972 14.5833 5.83317 14.7699 5.83317 15C5.83317 15.9205 5.08698 16.6667 4.1665 16.6667H3.74984C3.36262 16.6667 3.16902 16.6667 3.00802 16.6346C2.34687 16.5031 1.83004 15.9863 1.69853 15.3251C1.6665 15.1641 1.6665 14.9705 1.6665 14.5833V12.3333C1.6665 10.9332 1.6665 10.2331 1.93899 9.69836C2.17867 9.22795 2.56112 8.8455 3.03153 8.60582C3.56631 8.33333 4.26637 8.33333 5.6665 8.33333Z" stroke="#171717" stroke-width="1.5" stroke-linecap="round" stroke-linejoin="round"/>
</svg>
