<svg width="20" height="20" viewBox="0 0 20 20" fill="none" xmlns="http://www.w3.org/2000/svg">
<path d="M17.5 6.66646L15.8333 8.33312M15.8333 8.33312L14.5833 5.24979C14.4655 4.93424 14.2547 4.66181 13.9789 4.46842C13.7031 4.27503 13.3752 4.16975 13.0383 4.16646H7C6.66042 4.15866 6.32656 4.2548 6.04314 4.44201C5.75972 4.62922 5.54026 4.89856 5.41417 5.21396L4.16667 8.33312M15.8333 8.33312H4.16667M15.8333 8.33312C16.7538 8.33312 17.5 9.07928 17.5 9.99976V13.3331C17.5 14.2536 16.7538 14.9998 15.8333 14.9998M4.16667 8.33312L2.5 6.66646M4.16667 8.33312C3.24619 8.33312 2.5 9.07928 2.5 9.99976V13.3331C2.5 14.2536 3.24619 14.9998 4.16667 14.9998M5.83333 11.6664H5.84167M14.1667 11.6664H14.175M15.8333 14.9998H4.16667M15.8333 14.9998V16.6664M4.16667 14.9998V16.6664" stroke="#0A0A0A" stroke-width="1.5" stroke-linecap="round" stroke-linejoin="round"/>
</svg>
