<svg width="20" height="20" viewBox="0 0 20 20" fill="none" xmlns="http://www.w3.org/2000/svg">
<path d="M5.83341 17.2184V15.8334C5.83341 15.3913 6.00901 14.9674 6.32157 14.6548C6.63413 14.3423 7.05805 14.1667 7.50008 14.1667H12.5001C12.9421 14.1667 13.366 14.3423 13.6786 14.6548C13.9912 14.9674 14.1667 15.3913 14.1667 15.8334V17.2184M18.3334 10C18.3334 14.6024 14.6025 18.3334 10.0001 18.3334C5.39771 18.3334 1.66675 14.6024 1.66675 10C1.66675 5.39765 5.39771 1.66669 10.0001 1.66669C14.6025 1.66669 18.3334 5.39765 18.3334 10ZM12.5001 8.33335C12.5001 9.71407 11.3808 10.8334 10.0001 10.8334C8.61937 10.8334 7.50008 9.71407 7.50008 8.33335C7.50008 6.95264 8.61937 5.83335 10.0001 5.83335C11.3808 5.83335 12.5001 6.95264 12.5001 8.33335Z" stroke="#0A0A0A" stroke-width="1.33" stroke-linecap="round" stroke-linejoin="round"/>
</svg>
