<svg width="20" height="20" viewBox="0 0 20 20" fill="none" xmlns="http://www.w3.org/2000/svg">
<path d="M7.57471 7.50015C7.77063 6.94321 8.15733 6.47357 8.66634 6.17443C9.17534 5.87528 9.77379 5.76593 10.3557 5.86574C10.9376 5.96555 11.4654 6.26809 11.8456 6.71976C12.2258 7.17143 12.4339 7.74308 12.433 8.33348C12.433 10.0001 9.93304 10.8335 9.93304 10.8335M9.99984 14.1667H10.0082M18.3332 10.0001C18.3332 14.6025 14.6022 18.3334 9.99984 18.3334C5.39746 18.3334 1.6665 14.6025 1.6665 10.0001C1.6665 5.39771 5.39746 1.66675 9.99984 1.66675C14.6022 1.66675 18.3332 5.39771 18.3332 10.0001Z" stroke="#0A0A0A" stroke-width="1.5" stroke-linecap="round" stroke-linejoin="round"/>
</svg>
