<svg width="20" height="20" viewBox="0 0 20 20" fill="none" xmlns="http://www.w3.org/2000/svg">
<path d="M2.50012 9.16679L16.8335 5.00012L16.1668 2.83346C15.9168 2.00012 15.0001 1.50012 14.0835 1.75012L2.83346 5.08346C2.00012 5.33346 1.50012 6.25012 1.75012 7.16679L2.50012 9.16679ZM2.50012 9.16679L17.5002 9.16683V15.8335C17.5002 16.2755 17.3246 16.6994 17.012 17.012C16.6994 17.3246 16.2755 17.5002 15.8335 17.5002H4.16683C3.7248 17.5002 3.30088 17.3246 2.98832 17.012C2.67576 16.6994 2.50016 16.2755 2.50016 15.8335L2.50012 9.16679ZM5.16699 4.41687L7.75033 7.66687M10.3334 2.83341L12.9167 6.16675" stroke="#0A0A0A" stroke-width="1.5" stroke-linecap="round" stroke-linejoin="round"/>
</svg>
