<svg width="20" height="20" viewBox="0 0 20 20" fill="none" xmlns="http://www.w3.org/2000/svg">
<g clip-path="url(#clip0_24480_24402)">
<path d="M12.4998 10V15M9.99984 12.5H14.9998M3.33317 13.3333C2.4165 13.3333 1.6665 12.5833 1.6665 11.6667V3.33333C1.6665 2.41667 2.4165 1.66667 3.33317 1.66667H11.6665C12.5832 1.66667 13.3332 2.41667 13.3332 3.33333M8.33317 6.66667H16.6665C17.587 6.66667 18.3332 7.41286 18.3332 8.33333V16.6667C18.3332 17.5871 17.587 18.3333 16.6665 18.3333H8.33317C7.4127 18.3333 6.6665 17.5871 6.6665 16.6667V8.33333C6.6665 7.41286 7.4127 6.66667 8.33317 6.66667Z" stroke="#0A0A0A" stroke-width="1.5" stroke-linecap="round" stroke-linejoin="round"/>
</g>
<defs>
<clipPath id="clip0_24480_24402">
<rect width="20" height="20" fill="white"/>
</clipPath>
</defs>
</svg>

