<svg width="20" height="20" viewBox="0 0 20 20" fill="none" xmlns="http://www.w3.org/2000/svg">
<g clip-path="url(#clip0_24552_74214)">
<path d="M14.9332 11.6669L17.8498 8.75025C18.159 8.40733 18.3302 7.96198 18.3302 7.50025C18.3302 7.03851 18.159 6.59317 17.8498 6.25025L13.6832 2.15025C13.3403 1.84105 12.8949 1.66992 12.4332 1.66992C11.9714 1.66992 11.5261 1.84105 11.1832 2.15025L8.33317 5.00025M4.99984 15.0002H5.00817M8.33317 11.6669H8.3415M12.4998 5.0002H12.5082M14.9998 7.5002H15.0082M3.33317 8.33354H9.99984C10.9203 8.33354 11.6665 9.07973 11.6665 10.0002V16.6669C11.6665 17.5873 10.9203 18.3335 9.99984 18.3335H3.33317C2.4127 18.3335 1.6665 17.5873 1.6665 16.6669V10.0002C1.6665 9.07973 2.4127 8.33354 3.33317 8.33354Z" stroke="#0A0A0A" stroke-width="1.5" stroke-linecap="round" stroke-linejoin="round"/>
</g>
<defs>
<clipPath id="clip0_24552_74214">
<rect width="20" height="20" fill="white"/>
</clipPath>
</defs>
</svg>
