<svg width="20" height="20" viewBox="0 0 20 20" fill="none" xmlns="http://www.w3.org/2000/svg">
<g clip-path="url(#clip0_24510_62152)">
<path d="M9.99999 3.05176e-05C15.5228 3.05176e-05 20 4.47719 20 10C20 15.1127 16.1629 19.3287 11.2115 19.9268V13.0559L13.9167 13.0559L14.4779 10H11.2115V8.91927C11.2115 8.11184 11.3699 7.55286 11.7332 7.19572C12.0966 6.83858 12.6649 6.68331 13.4848 6.68331C13.6923 6.68331 13.8833 6.68537 14.0527 6.6895C14.2992 6.6955 14.5002 6.70587 14.64 6.72059V3.95043C14.5841 3.9349 14.5181 3.91937 14.4442 3.90408C14.2767 3.86945 14.0685 3.83606 13.8447 3.80675C13.377 3.74547 12.8411 3.70195 12.4662 3.70195C10.952 3.70195 9.80767 4.02588 9.00892 4.69685C8.0449 5.50662 7.58423 6.82188 7.58423 8.68326V10H5.52216V13.0559H7.58423V19.7055C3.2286 18.6249 0 14.6898 0 10C0 4.47719 4.47716 3.05176e-05 9.99999 3.05176e-05Z" fill="#0A0A0A"/>
</g>
<defs>
<clipPath id="clip0_24510_62152">
<rect width="20" height="20" fill="white"/>
</clipPath>
</defs>
</svg>

