<svg width="20" height="20" viewBox="0 0 20 20" fill="none" xmlns="http://www.w3.org/2000/svg">
<path d="M11.6665 1.6665V4.99984C11.6665 5.44186 11.8421 5.86579 12.1547 6.17835C12.4672 6.49091 12.8911 6.6665 13.3332 6.6665H16.6665M3.5565 17.4998C3.70243 17.7526 3.91216 17.9626 4.16472 18.1088C4.41729 18.2551 4.70382 18.3324 4.99567 18.3332H14.9998C15.4419 18.3332 15.8658 18.1576 16.1783 17.845C16.4909 17.5325 16.6665 17.1085 16.6665 16.6665V5.83317L12.4998 1.6665H4.99984C4.55781 1.6665 4.13389 1.8421 3.82133 2.15466C3.50877 2.46722 3.33317 2.89114 3.33317 3.33317V5.83317M7.49984 14.9998L6.24984 13.7498M6.6665 11.6665C6.6665 13.0472 5.54722 14.1665 4.1665 14.1665C2.78579 14.1665 1.6665 13.0472 1.6665 11.6665C1.6665 10.2858 2.78579 9.1665 4.1665 9.1665C5.54722 9.1665 6.6665 10.2858 6.6665 11.6665Z" stroke="#0A0A0A" stroke-width="1.5" stroke-linecap="round" stroke-linejoin="round"/>
</svg>
