<svg width="20" height="20" viewBox="0 0 20 20" fill="none" xmlns="http://www.w3.org/2000/svg">
<path d="M10.0002 14.1667H10.0085M7.58358 7.49994C7.78356 6.9488 8.17089 6.48547 8.67785 6.19096C9.18482 5.89645 9.77917 5.78949 10.357 5.88877C10.9348 5.98806 11.4594 6.28727 11.839 6.73411C12.2186 7.18095 12.429 7.74699 12.4336 8.33327C12.4336 9.99994 9.93358 10.8333 9.93358 10.8333M12.5002 1.66667H5.00016C4.55814 1.66667 4.13421 1.84226 3.82165 2.15482C3.50909 2.46738 3.3335 2.89131 3.3335 3.33333V16.6667C3.3335 17.1087 3.50909 17.5326 3.82165 17.8452C4.13421 18.1577 4.55814 18.3333 5.00016 18.3333H15.0002C15.4422 18.3333 15.8661 18.1577 16.1787 17.8452C16.4912 17.5326 16.6668 17.1087 16.6668 16.6667V5.83333L12.5002 1.66667Z" stroke="#0A0A0A" stroke-width="1.5" stroke-linecap="round" stroke-linejoin="round"/>
</svg>

