<svg width="20" height="20" viewBox="0 0 20 20" fill="none" xmlns="http://www.w3.org/2000/svg">
<path d="M9.99992 8.33329V11.6666M6.20585 2.85082C7.28276 2.10415 8.59024 1.66663 9.99992 1.66663C13.6818 1.66663 16.6666 4.65139 16.6666 8.33329V9.36384M3.68018 6.20502C3.45519 6.87337 3.33325 7.58909 3.33325 8.33329V11.6666C3.33325 14.6957 5.35339 17.2529 8.11988 18.0645M16.3823 13.5989C15.7744 15.6094 14.2425 17.2188 12.2805 17.933M11.9374 5.12192C11.3719 4.78004 10.7089 4.58329 9.99992 4.58329C7.92885 4.58329 6.24992 6.26223 6.24992 8.33329V10.7916M13.7499 9.19996V11.6666C13.7499 13.7377 12.071 15.4166 9.99992 15.4166C9.29271 15.4166 8.63123 15.2209 8.0667 14.8806" stroke="#171717" stroke-width="1.5" stroke-linecap="round" stroke-linejoin="round"/>
</svg>

