<svg width="20" height="20" viewBox="0 0 20 20" fill="none" xmlns="http://www.w3.org/2000/svg">
<path d="M10.0002 8.33333V11.6667M6.2061 2.85086C7.283 2.10419 8.59049 1.66667 10.0002 1.66667C13.6821 1.66667 16.6668 4.65144 16.6668 8.33333V9.36389M3.68043 6.20506C3.45544 6.87341 3.3335 7.58913 3.3335 8.33333V11.6667C3.3335 14.6957 5.35363 17.2529 8.12013 18.0646M16.3825 13.5989C15.7746 15.6095 14.2427 17.2188 12.2808 17.933M11.9376 5.12196C11.3722 4.78008 10.7091 4.58333 10.0002 4.58333C7.92909 4.58333 6.25016 6.26227 6.25016 8.33333V10.7917M13.7502 9.2V11.6667C13.7502 13.7377 12.0712 15.4167 10.0002 15.4167C9.29295 15.4167 8.63147 15.2209 8.06695 14.8806" stroke="#171717" stroke-width="1.5" stroke-linecap="round" stroke-linejoin="round"/>
</svg>
