<svg width="20" height="20" viewBox="0 0 20 20" fill="none" xmlns="http://www.w3.org/2000/svg">
<path d="M8.9165 16.6667H3.33317C2.89114 16.6667 2.46722 16.4912 2.15466 16.1786C1.8421 15.866 1.6665 15.4421 1.6665 15.0001V4.16675C1.6665 3.72472 1.8421 3.3008 2.15466 2.98824C2.46722 2.67567 2.89114 2.50008 3.33317 2.50008H6.58317C6.86191 2.49735 7.13688 2.56457 7.38292 2.6956C7.62896 2.82662 7.8382 3.01727 7.9915 3.25008L8.6665 4.25008C8.81826 4.48052 9.02486 4.66968 9.26775 4.80058C9.51065 4.93148 9.78225 5.00003 10.0582 5.00008H16.6665C17.1085 5.00008 17.5325 5.17567 17.845 5.48824C18.1576 5.8008 18.3332 6.22472 18.3332 6.66675V10.0834M17.4998 17.5L16.2498 16.25M16.6665 14.1667C16.6665 15.5474 15.5472 16.6667 14.1665 16.6667C12.7858 16.6667 11.6665 15.5474 11.6665 14.1667C11.6665 12.786 12.7858 11.6667 14.1665 11.6667C15.5472 11.6667 16.6665 12.786 16.6665 14.1667Z" stroke="#0A0A0A" stroke-width="1.5" stroke-linecap="round" stroke-linejoin="round"/>
</svg>
