<svg width="56" height="56" viewBox="0 0 56 56" fill="none" xmlns="http://www.w3.org/2000/svg">
<path d="M28 0.5C43.1878 0.5 55.5 12.8122 55.5 28C55.5 43.1878 43.1878 55.5 28 55.5C12.8122 55.5 0.5 43.1878 0.5 28C0.500001 12.8122 12.8122 0.500002 28 0.5Z" stroke="black"/>
<path d="M27.9994 4.56165L28.6855 6.67305H30.9058L29.1092 7.97798L29.7954 10.0894L27.9994 8.78445L26.2035 10.0894L26.8896 7.97798L25.093 6.67305H27.3133L27.9994 4.56165Z" fill="black"/>
<path d="M27.9994 45.327L28.6855 47.4381H30.9058L29.1092 48.7433L29.7954 50.8544L27.9994 49.5498L26.2035 50.8544L26.8896 48.7433L25.093 47.4381H27.3133L27.9994 45.327Z" fill="black"/>
<path d="M7.61672 24.9439L8.30271 27.0553H10.5226L8.72673 28.3602L9.41279 30.4716L7.61672 29.1667L5.82064 30.4716L6.50664 28.3602L4.71057 27.0553H6.93066L7.61672 24.9439Z" fill="black"/>
<path d="M48.3821 24.9439L49.0682 27.0553H51.2885L49.4925 28.3602L50.1787 30.4716L48.3821 29.1667L46.5861 30.4716L47.2723 28.3602L45.4763 27.0553H47.696L48.3821 24.9439Z" fill="black"/>
<path d="M45.7592 14.9436L46.4453 17.055H48.6656L46.869 18.3599L47.5551 20.4714L45.7592 19.1664L43.9632 20.4714L44.6494 18.3599L42.8528 17.055H45.0731L45.7592 14.9436Z" fill="black"/>
<path d="M10.239 34.9454L10.9245 37.0569H13.1448L11.3489 38.3616L12.035 40.4733L10.239 39.168L8.44266 40.4733L9.12871 38.3616L7.33264 37.0569H9.55292L10.239 34.9454Z" fill="black"/>
<path d="M38.875 7.70549L39.5611 9.81695H41.7814L39.9855 11.1218L40.6716 13.2333L38.875 11.9283L37.0791 13.2333L37.7652 11.1218L35.9692 9.81695H38.1895L38.875 7.70549Z" fill="black"/>
<path d="M17.1226 42.183L17.8087 44.2941H20.029L18.2324 45.5993L18.9185 47.7104L17.1226 46.4058L15.3266 47.7104L16.0127 45.5993L14.2168 44.2941H16.4365L17.1226 42.183Z" fill="black"/>
<path d="M10.239 14.9436L10.9245 17.055H13.1448L11.3489 18.3599L12.035 20.4714L10.239 19.1664L8.44266 20.4714L9.12871 18.3599L7.33264 17.055H9.55292L10.239 14.9436Z" fill="black"/>
<path d="M45.7592 34.9454L46.4453 37.0569H48.6656L46.869 38.3616L47.5551 40.4733L45.7592 39.168L43.9632 40.4733L44.6494 38.3616L42.8528 37.0569H45.0731L45.7592 34.9454Z" fill="black"/>
<path d="M17.1232 7.70549L17.8093 9.81695H20.029L18.233 11.1218L18.9191 13.2333L17.1232 11.9283L15.3272 13.2333L16.0134 11.1218L14.2168 9.81695H16.4371L17.1232 7.70549Z" fill="black"/>
<path d="M38.875 42.183L39.5611 44.2941H41.7814L39.9855 45.5993L40.6716 47.7104L38.875 46.4058L37.0791 47.7104L37.7652 45.5993L35.9692 44.2941H38.1895L38.875 42.183Z" fill="black"/>
<path d="M18.3727 31.1258C17.7567 31.1258 17.1958 30.9942 16.6903 30.731C16.1915 30.4679 15.7932 30.0801 15.4954 29.5676C15.2045 29.0483 15.0593 28.4111 15.0593 27.6564C15.0593 26.9084 15.2082 26.2713 15.506 25.745C15.8106 25.2118 16.2126 24.8067 16.7107 24.5297C17.2095 24.2457 17.7598 24.1037 18.3628 24.1037C18.8541 24.1037 19.2765 24.1938 19.6295 24.3738C19.9831 24.5539 20.2704 24.7582 20.4918 24.9867L19.6922 25.9631C19.5191 25.8108 19.3355 25.6827 19.1419 25.5788C18.9478 25.4749 18.7052 25.423 18.4142 25.423C17.8882 25.423 17.4589 25.6169 17.1264 26.0047C16.7939 26.3925 16.6276 26.9258 16.6276 27.6044C16.6276 28.2969 16.787 28.8371 17.1059 29.2249C17.4241 29.6127 17.8987 29.8066 18.529 29.8066C18.6673 29.8066 18.8026 29.7893 18.9341 29.7546C19.0656 29.72 19.1729 29.6681 19.2561 29.5988V28.4354H18.1338V27.1889H20.606V30.3052C20.3709 30.5337 20.0557 30.7276 19.6612 30.8869C19.2734 31.0461 18.8435 31.1258 18.3727 31.1258ZM22.0055 31.0012V24.2284H23.9168C24.6092 24.2284 25.2084 24.3462 25.714 24.5816C26.2196 24.817 26.6104 25.1841 26.8877 25.6827C27.1713 26.1744 27.3133 26.808 27.3133 27.5836C27.3133 28.3592 27.175 28.9998 26.8983 29.5053C26.621 30.0109 26.2333 30.3883 25.7345 30.6376C25.2432 30.8799 24.6644 31.0012 24 31.0012H22.0055ZM23.5322 29.765H23.8232C24.2109 29.765 24.5471 29.6958 24.8306 29.5573C25.1216 29.4187 25.3468 29.1903 25.5062 28.8717C25.6656 28.5531 25.745 28.1238 25.745 27.5836C25.745 27.0434 25.6656 26.621 25.5062 26.3163C25.3468 26.0047 25.1216 25.7866 24.8306 25.6619C24.5471 25.5303 24.2109 25.4646 23.8232 25.4646H23.5322V29.765ZM28.5993 31.0012V24.2284H30.9257C31.4244 24.2284 31.8748 24.2977 32.2762 24.4362C32.685 24.5678 33.0107 24.7928 33.2527 25.1114C33.4952 25.4299 33.6162 25.8627 33.6162 26.4098C33.6162 26.9361 33.4952 27.3689 33.2527 27.7083C33.0107 28.0476 32.6881 28.3003 32.2868 28.4665C31.8854 28.6259 31.4455 28.7055 30.9672 28.7055H30.126V31.0012H28.5993ZM30.126 27.4901H30.8742C31.7049 27.4901 32.1205 27.13 32.1205 26.4098C32.1205 26.0566 32.0094 25.8073 31.788 25.6619C31.5665 25.5165 31.2483 25.4438 30.8326 25.4438H30.126V27.4901ZM34.7868 31.0012V24.2284H37.2279C37.7062 24.2284 38.1423 24.2942 38.5369 24.4258C38.9314 24.5504 39.2466 24.7651 39.4823 25.0698C39.7174 25.3745 39.8353 25.7969 39.8353 26.3371C39.8353 26.8357 39.7249 27.2477 39.5028 27.5732C39.2881 27.8918 38.9978 28.1307 38.6306 28.29L40.1678 31.0012H38.4538L37.1553 28.56H36.3141V31.0012H34.7868ZM36.3141 27.3447H37.1032C37.5052 27.3447 37.8098 27.2616 38.0177 27.0954C38.2323 26.9223 38.3396 26.6695 38.3396 26.3371C38.3396 26.0047 38.2323 25.7727 38.0177 25.6411C37.8098 25.5095 37.5052 25.4438 37.1032 25.4438H36.3141V27.3447Z" fill="black"/>
</svg>
