<svg width="20" height="20" viewBox="0 0 20 20" fill="none" xmlns="http://www.w3.org/2000/svg">
<path d="M10 6.66671V17.5M10 6.66671C9.69856 5.42454 9.17954 4.36255 8.51061 3.6193C7.84169 2.87605 7.0539 2.48599 6.25 2.5C5.69747 2.5 5.16756 2.71949 4.77686 3.11019C4.38616 3.50089 4.16667 4.0308 4.16667 4.58333C4.16667 5.13587 4.38616 5.66577 4.77686 6.05647C5.16756 6.44717 5.69747 6.66667 6.25 6.66667M10 6.66671C10.3014 5.42454 10.8205 4.36255 11.4894 3.6193C12.1583 2.87605 12.9461 2.48599 13.75 2.5C14.3025 2.5 14.8324 2.71949 15.2231 3.11019C15.6138 3.50089 15.8333 4.0308 15.8333 4.58333C15.8333 5.13587 15.6138 5.66577 15.2231 6.05647C14.8324 6.44717 14.3025 6.66667 13.75 6.66667M15.8333 10V15.8334C15.8333 16.2754 15.6577 16.6993 15.3452 17.0119C15.0326 17.3244 14.6087 17.5 14.1667 17.5H5.83333C5.39131 17.5 4.96738 17.3244 4.65482 17.0119C4.34226 16.6993 4.16667 16.2754 4.16667 15.8334V10M3.33333 6.66671H16.6667C17.1269 6.66671 17.5 7.0398 17.5 7.50004V9.16671C17.5 9.62694 17.1269 10 16.6667 10H3.33333C2.8731 10 2.5 9.62694 2.5 9.16671V7.50004C2.5 7.0398 2.8731 6.66671 3.33333 6.66671Z" stroke="#0A0A0A" stroke-width="1.5" stroke-linecap="round" stroke-linejoin="round"/>
</svg>