<svg width="20" height="20" viewBox="0 0 20 20" fill="none" xmlns="http://www.w3.org/2000/svg">
<g clip-path="url(#clip0_24618_54642)">
<path d="M18.3332 9.99996C18.3332 14.6023 14.6022 18.3333 9.99984 18.3333M18.3332 9.99996C18.3332 5.39759 14.6022 1.66663 9.99984 1.66663M18.3332 9.99996H1.6665M9.99984 18.3333C5.39746 18.3333 1.6665 14.6023 1.6665 9.99996M9.99984 18.3333C7.86003 16.0865 6.6665 13.1027 6.6665 9.99996C6.6665 6.89724 7.86003 3.91342 9.99984 1.66663M9.99984 18.3333C12.1396 16.0865 13.3332 13.1027 13.3332 9.99996C13.3332 6.89724 12.1396 3.91342 9.99984 1.66663M1.6665 9.99996C1.6665 5.39759 5.39746 1.66663 9.99984 1.66663" stroke="#0A0A0A" stroke-width="1.5" stroke-linecap="round" stroke-linejoin="round"/>
</g>
<defs>
<clipPath id="clip0_24618_54642">
<rect width="20" height="20" fill="white"/>
</clipPath>
</defs>
</svg>
