<svg width="20" height="20" viewBox="0 0 20 20" fill="none" xmlns="http://www.w3.org/2000/svg">
<path d="M18.3334 9.99996C18.3334 14.6023 14.6025 18.3333 10.0001 18.3333M18.3334 9.99996C18.3334 5.39759 14.6025 1.66663 10.0001 1.66663M18.3334 9.99996H1.66675M10.0001 18.3333C5.39771 18.3333 1.66675 14.6023 1.66675 9.99996M10.0001 18.3333C7.86028 16.0865 6.66675 13.1027 6.66675 9.99996C6.66675 6.89724 7.86028 3.91342 10.0001 1.66663M10.0001 18.3333C12.1399 16.0865 13.3334 13.1027 13.3334 9.99996C13.3334 6.89724 12.1399 3.91342 10.0001 1.66663M1.66675 9.99996C1.66675 5.39759 5.39771 1.66663 10.0001 1.66663" stroke="#0A0A0A" stroke-width="1.5" stroke-linecap="round" stroke-linejoin="round"/>
</svg>
