<svg width="20" height="20" viewBox="0 0 20 20" fill="none" xmlns="http://www.w3.org/2000/svg">
<g clip-path="url(#clip0_24511_114649)">
<path d="M18.3327 9.99999C18.3327 14.6024 14.6017 18.3333 9.99935 18.3333M18.3327 9.99999C18.3327 5.39762 14.6017 1.66666 9.99935 1.66666M18.3327 9.99999H1.66602M9.99935 18.3333C5.39698 18.3333 1.66602 14.6024 1.66602 9.99999M9.99935 18.3333C7.85954 16.0865 6.66602 13.1027 6.66602 9.99999C6.66602 6.89727 7.85954 3.91345 9.99935 1.66666M9.99935 18.3333C12.1392 16.0865 13.3327 13.1027 13.3327 9.99999C13.3327 6.89727 12.1392 3.91345 9.99935 1.66666M1.66602 9.99999C1.66602 5.39762 5.39698 1.66666 9.99935 1.66666" stroke="#0A0A0A" stroke-width="1.5" stroke-linecap="round" stroke-linejoin="round"/>
</g>
<defs>
<clipPath id="clip0_24511_114649">
<rect width="20" height="20" fill="white"/>
</clipPath>
</defs>
</svg>

