<svg width="20" height="20" viewBox="0 0 20 20" fill="none" xmlns="http://www.w3.org/2000/svg">
<g clip-path="url(#clip0_24626_56831)">
<path d="M18.3332 10.0001C18.3332 14.6025 14.6022 18.3334 9.99984 18.3334M18.3332 10.0001C18.3332 5.39771 14.6022 1.66675 9.99984 1.66675M18.3332 10.0001H1.6665M9.99984 18.3334C5.39746 18.3334 1.6665 14.6025 1.6665 10.0001M9.99984 18.3334C7.86003 16.0866 6.6665 13.1028 6.6665 10.0001C6.6665 6.89736 7.86003 3.91354 9.99984 1.66675M9.99984 18.3334C12.1396 16.0866 13.3332 13.1028 13.3332 10.0001C13.3332 6.89736 12.1396 3.91354 9.99984 1.66675M1.6665 10.0001C1.6665 5.39771 5.39746 1.66675 9.99984 1.66675" stroke="#0A0A0A" stroke-width="1.5" stroke-linecap="round" stroke-linejoin="round"/>
</g>
<defs>
<clipPath id="clip0_24626_56831">
<rect width="20" height="20" fill="white"/>
</clipPath>
</defs>
</svg>
