<svg width="20" height="20" viewBox="0 0 20 20" fill="none" xmlns="http://www.w3.org/2000/svg">
<path d="M9.1665 10.0002H10.8332C11.2752 10.0002 11.6991 9.82461 12.0117 9.51205C12.3242 9.19949 12.4998 8.77556 12.4998 8.33354C12.4998 7.89151 12.3242 7.46759 12.0117 7.15503C11.6991 6.84247 11.2752 6.66687 10.8332 6.66687H8.33317C7.83317 6.66687 7.4165 6.83354 7.1665 7.16687L2.49984 11.6669M5.83317 15.0002L7.1665 13.8336C7.4165 13.5002 7.83317 13.3336 8.33317 13.3336H11.6665C12.5832 13.3336 13.4165 13.0002 13.9998 12.3336L17.8332 8.66689C18.1547 8.363 18.3424 7.94381 18.3549 7.50153C18.3674 7.05926 18.2037 6.63014 17.8998 6.30856C17.5959 5.98699 17.1768 5.7993 16.7345 5.7868C16.2922 5.7743 15.8631 5.938 15.5415 6.24189L12.0415 9.49189M1.6665 10.8335L6.6665 15.8335" stroke="#0A0A0A" stroke-width="1.5" stroke-linecap="round" stroke-linejoin="round"/>
</svg>
