<svg width="20" height="20" viewBox="0 0 20 20" fill="none" xmlns="http://www.w3.org/2000/svg">
<g clip-path="url(#clip0_24626_64833)">
<path d="M9.1665 12.4998H10.8332C11.2752 12.4998 11.6991 12.3242 12.0117 12.0117C12.3242 11.6991 12.4998 11.2752 12.4998 10.8332C12.4998 10.3911 12.3242 9.96722 12.0117 9.65466C11.6991 9.3421 11.2752 9.1665 10.8332 9.1665H8.33317C7.83317 9.1665 7.4165 9.33317 7.1665 9.6665L2.49984 14.1665M5.83317 17.4999L7.1665 16.3332C7.4165 15.9999 7.83317 15.8332 8.33317 15.8332H11.6665C12.5832 15.8332 13.4165 15.4999 13.9998 14.8332L17.8332 11.1665C18.1547 10.8626 18.3424 10.4434 18.3549 10.0012C18.3674 9.55889 18.2037 9.12977 17.8998 8.80819C17.5959 8.48662 17.1768 8.29894 16.7345 8.28643C16.2922 8.27393 15.8631 8.43763 15.5415 8.74153L12.0415 11.9915M1.6665 13.3332L6.6665 18.3332M15.7499 7.49992C15.7499 8.83461 14.6679 9.91658 13.3333 9.91658C11.9986 9.91658 10.9166 8.83461 10.9166 7.49992C10.9166 6.16523 11.9986 5.08325 13.3333 5.08325C14.6679 5.08325 15.7499 6.16523 15.7499 7.49992ZM7.49984 4.1665C7.49984 5.54722 6.38055 6.6665 4.99984 6.6665C3.61913 6.6665 2.49984 5.54722 2.49984 4.1665C2.49984 2.78579 3.61913 1.6665 4.99984 1.6665C6.38055 1.6665 7.49984 2.78579 7.49984 4.1665Z" stroke="#0A0A0A" stroke-width="1.5" stroke-linecap="round" stroke-linejoin="round"/>
</g>
<defs>
<clipPath id="clip0_24626_64833">
<rect width="20" height="20" fill="white"/>
</clipPath>
</defs>
</svg>
