<svg width="20" height="20" viewBox="0 0 20 20" fill="none" xmlns="http://www.w3.org/2000/svg">
<path d="M9.99984 4.16667C11.2498 2.91667 12.2832 2.5 13.7498 2.5C14.9654 2.5 16.1312 2.98289 16.9907 3.84243C17.8503 4.70197 18.3332 5.86776 18.3332 7.08333C18.3332 8.99167 17.0748 10.45 15.8332 11.6667L9.99984 17.5L4.1665 11.6667C2.9165 10.4583 1.6665 9 1.6665 7.08333C1.6665 5.86776 2.14939 4.70197 3.00893 3.84243C3.86847 2.98289 5.03426 2.5 6.24984 2.5C7.7165 2.5 8.74984 2.91667 9.99984 4.16667ZM9.99984 4.16667L7.53326 6.63333C7.36394 6.80142 7.22956 7.00135 7.13786 7.22161C7.04615 7.44186 6.99894 7.67808 6.99894 7.91667C6.99894 8.15525 7.04615 8.39147 7.13786 8.61173C7.22956 8.83198 7.36394 9.03191 7.53326 9.2C8.21659 9.88333 9.30826 9.90833 10.0333 9.25833L11.7583 7.675C12.1906 7.28266 12.7536 7.06533 13.3374 7.06533C13.9213 7.06533 14.4842 7.28266 14.9166 7.675L17.3833 9.89167M14.9998 12.5L13.3332 10.8333M12.4998 15L10.8332 13.3333" stroke="#0A0A0A" stroke-width="1.5" stroke-linecap="round" stroke-linejoin="round"/>
</svg>
