<svg width="20" height="20" viewBox="0 0 20 20" fill="none" xmlns="http://www.w3.org/2000/svg">
<g clip-path="url(#clip0_24509_37083)">
<path d="M14.9998 18.3333H3.33317C2.89114 18.3333 2.46722 18.1577 2.15466 17.8452C1.8421 17.5326 1.6665 17.1087 1.6665 16.6667V4.99999M18.3332 10.8334L17.2532 9.75335C16.8765 9.37678 16.3658 9.16523 15.8332 9.16523C15.3006 9.16523 14.7898 9.37678 14.4132 9.75335L9.1665 15M11.6665 6.66666C11.6665 7.58713 10.9203 8.33332 9.99984 8.33332C9.07936 8.33332 8.33317 7.58713 8.33317 6.66666C8.33317 5.74618 9.07936 4.99999 9.99984 4.99999C10.9203 4.99999 11.6665 5.74618 11.6665 6.66666ZM6.6665 1.66666H16.6665C17.587 1.66666 18.3332 2.41285 18.3332 3.33332V13.3333C18.3332 14.2538 17.587 15 16.6665 15H6.6665C5.74603 15 4.99984 14.2538 4.99984 13.3333V3.33332C4.99984 2.41285 5.74603 1.66666 6.6665 1.66666Z" stroke="#171717" stroke-width="1.5" stroke-linecap="round" stroke-linejoin="round"/>
</g>
<defs>
<clipPath id="clip0_24509_37083">
<rect width="20" height="20" fill="white"/>
</clipPath>
</defs>
</svg>
