<svg width="20" height="20" viewBox="0 0 20 20" fill="none" xmlns="http://www.w3.org/2000/svg">
<path fill-rule="evenodd" clip-rule="evenodd" d="M14.491 7.769C14.5808 7.85152 14.6526 7.95164 14.7019 8.06313C14.7513 8.17461 14.7772 8.29507 14.778 8.417C14.7772 8.53893 14.7513 8.65939 14.7019 8.77087C14.6526 8.88236 14.5808 8.98248 14.491 9.065L10.575 12.732C10.3865 12.9056 10.1393 13.0014 9.883 13C9.623 13 9.374 12.903 9.191 12.732L5.275 9.065C5.18769 8.98186 5.11826 8.88177 5.07098 8.77086C5.02369 8.65995 4.99954 8.54056 5 8.42C5.00193 8.29943 5.02837 8.18052 5.07771 8.0705C5.12705 7.96047 5.19826 7.86164 5.287 7.78C5.468 7.61 5.714 7.513 5.97 7.511C6.227 7.509 6.474 7.601 6.66 7.769L8.903 9.87V3.917C8.903 3.674 9.006 3.44 9.19 3.268C9.373 3.097 9.622 3 9.882 3C10.142 3 10.391 3.097 10.574 3.268C10.6639 3.35063 10.7358 3.45092 10.7851 3.56259C10.8345 3.67425 10.8604 3.7949 10.861 3.917V9.87L13.106 7.768C13.289 7.596 13.538 7.499 13.798 7.499C14.058 7.499 14.306 7.596 14.49 7.768L14.491 7.769Z" fill="#0A0A0A"/>
<path d="M6 15H5C4.44772 15 4 15.4477 4 16C4 16.5523 4.44772 17 5 17H6C6.55228 17 7 16.5523 7 16C7 15.4477 6.55228 15 6 15Z" fill="#0A0A0A"/>
<path d="M10.5 15H9.5C8.94771 15 8.5 15.4477 8.5 16C8.5 16.5523 8.94771 17 9.5 17H10.5C11.0523 17 11.5 16.5523 11.5 16C11.5 15.4477 11.0523 15 10.5 15Z" fill="#0A0A0A"/>
<path d="M15 15H14C13.4477 15 13 15.4477 13 16C13 16.5523 13.4477 17 14 17H15C15.5523 17 16 16.5523 16 16C16 15.4477 15.5523 15 15 15Z" fill="#0A0A0A"/>
</svg>
