<svg width="56" height="56" viewBox="0 0 56 56" fill="none" xmlns="http://www.w3.org/2000/svg">
<path d="M28 0.5C43.1878 0.5 55.5 12.8122 55.5 28C55.5 43.1878 43.1878 55.5 28 55.5C12.8122 55.5 0.5 43.1878 0.5 28C0.500003 12.8122 12.8122 0.500001 28 0.5Z" stroke="black"/>
<path d="M46.405 40.966C45.1895 42.7056 43.6487 44.3909 41.969 45.697C41.909 45.7873 41.7343 45.7512 41.6796 45.6669C40.9513 45.2095 40.1694 44.8423 39.4706 44.3848C40.3977 43.2714 41.3007 42.1638 41.9995 40.9299H41.0966C40.3735 41.9893 39.6158 43.1028 38.6581 44.0417C37.3825 43.5302 36.2206 43.0727 34.9146 42.7296L34.7704 42.6213C34.9745 42.0434 35.3482 41.5017 35.4618 40.9359H34.6799L33.8969 42.4768C32.1877 42.1036 30.2975 41.905 28.5579 41.7906C28.4684 41.5378 28.5884 41.1646 28.4684 40.9359H27.7159C27.6559 41.279 27.8001 41.5378 27.6254 41.8207C25.8257 41.905 24.0861 42.1036 22.4011 42.4467L21.6118 40.9299C21.3234 40.9299 21.0045 40.8757 20.7993 40.96L21.5276 42.6454L21.4434 42.7296C20.1373 43.1028 18.8618 43.5603 17.6157 44.0718L17.501 44.0116C16.6885 43.1269 15.9055 42.1638 15.2625 41.1887C15.1172 40.7011 14.5331 40.984 14.2206 40.9299C14.9131 42.1879 15.8455 43.2954 16.7727 44.439C15.9907 44.8965 15.2077 45.4081 14.3889 45.7813C12.6493 44.4691 11.0243 42.7537 9.80243 40.96C9.45303 40.9058 9.22465 40.9299 8.87524 40.96C10.9643 44.2103 14.2205 47.0634 17.6157 48.7488C17.6157 48.7488 17.6157 48.7247 17.6452 48.7247C17.6694 48.7247 17.7294 48.7789 17.6694 48.809C19.9626 49.9225 22.4011 50.717 24.9827 51.0661C33.8916 52.2339 42.3963 48.4418 47.3322 40.966C47.0733 40.9359 46.6945 40.9359 46.405 40.966ZM34.301 43.5362L34.3852 43.476C35.6365 43.7589 36.8226 44.1621 37.9298 44.7039C37.0036 45.7572 35.8112 46.6722 34.7104 47.4426C34.0421 47.8399 33.3738 48.2733 32.675 48.6104L31.43 48.0686L31.5142 47.87C32.5613 46.4735 33.4885 45.047 34.301 43.5362ZM28.5821 42.6815C30.2376 42.7116 31.893 42.8861 33.4275 43.2533L33.458 43.3376C32.6455 44.8784 31.6278 46.3652 30.527 47.7556C30.0334 47.8158 29.5693 47.6172 29.0757 47.5871L28.5821 47.5269C28.5221 45.8415 28.4916 44.3608 28.5821 42.6755V42.6815ZM22.9842 43.1931C24.4955 42.9102 26.0604 42.6815 27.6854 42.6815L27.7159 47.5088C27.1013 47.6473 26.4393 47.6473 25.8552 47.7917C24.6639 46.3893 23.683 44.8784 22.84 43.3075L22.9842 43.1931ZM18.3072 44.734C19.4448 44.1922 20.6309 43.789 21.8465 43.476L21.9675 43.5061C22.8042 45.0771 23.8514 46.5578 24.8986 48.0385C24.4955 48.2673 24.0019 48.4057 23.5925 48.6405C21.6781 47.7015 19.849 46.3832 18.3072 44.8182V44.734ZM22.0517 49.6095C19.6143 48.9776 17.3505 47.8941 15.2562 46.4133V46.323C15.9539 45.8957 16.6527 45.4442 17.4052 45.1252C19.0596 46.7564 20.7699 47.9783 22.6295 49.1461C22.4853 49.3205 22.2506 49.4891 22.0454 49.6035L22.0517 49.6095ZM32.8202 49.9767C29.744 50.6388 26.3193 50.6628 23.2431 49.9225C23.1831 49.778 23.3883 49.7479 23.4778 49.6697C26.1752 47.9302 30.3817 47.9302 33.0307 49.8081C33.1149 49.9827 32.8865 49.9225 32.8255 49.9827L32.8202 49.9767ZM35.6071 49.1822L34.24 49.6095C34.0053 49.4951 33.8074 49.3266 33.6022 49.1521L33.6622 49.0677C35.5229 47.9844 37.2015 46.6722 38.8033 45.1011C39.5853 45.4141 40.3441 45.8415 41.0418 46.3291C39.4169 47.6172 37.5267 48.4719 35.6123 49.1822H35.6071Z" fill="black"/>
<path d="M9.74036 14.9529C10.4392 13.9838 11.2211 13.0448 12.0883 12.1299C12.8408 11.4196 13.5386 10.7335 14.3511 10.2158C15.1036 10.7034 15.9465 11.1066 16.6748 11.5581C15.7782 12.6656 14.8446 13.7792 14.1774 14.977C14.3816 15.0673 14.7605 15.0372 15.0499 14.977C15.7719 13.9236 16.5601 12.8642 17.4873 11.9252C18.7334 12.3827 19.9553 12.8642 21.2319 13.2073L21.3455 13.3217L20.6236 14.977C20.9424 15.0372 21.1466 15.0071 21.4666 14.977C21.7244 14.4954 21.9296 13.9537 22.218 13.4661C23.904 13.8393 25.6732 14.038 27.4728 14.0921C27.7075 14.2968 27.5339 14.7242 27.618 14.977H28.4C28.4842 14.6941 28.3705 14.3751 28.4842 14.1283C30.1702 14.038 31.9393 13.8694 33.5706 13.4661L33.7148 13.4963L34.4978 14.977C34.762 14.977 35.1051 15.0372 35.3103 14.9168L34.582 13.2675L34.642 13.2073C35.9723 12.8642 37.2247 12.3526 38.5002 11.841C39.4032 12.78 40.2399 13.8935 40.9987 14.977C41.3176 14.977 41.6365 15.0071 41.8648 14.9168C41.5165 14.2908 41.0766 13.6648 40.6188 13.117C40.2399 12.5753 39.8368 12.0938 39.3432 11.5822V11.4377L41.3776 10.27L41.6722 10.1556C43.4424 11.4979 45.0074 13.117 46.2587 14.9168C46.6082 14.9168 46.8976 15.0372 47.1859 14.8927C43.2972 9.07817 36.8816 5.34027 29.9471 4.80457L29.9166 4.85874L29.8566 4.80457C29.0746 4.7203 28.1116 4.6902 27.275 4.77447C26.9561 4.75039 26.5824 4.77447 26.2036 4.80457C19.2333 5.34027 12.8229 8.90964 8.81421 14.983C9.10258 14.9529 9.45199 15.0733 9.74036 14.9529ZM21.7907 12.4489L21.6771 12.473C20.4846 12.16 19.3228 11.7868 18.2219 11.3053L18.2756 11.1307C19.8711 9.6199 21.556 8.3619 23.4167 7.39281C23.8556 7.56736 24.2892 7.70581 24.7228 7.91046L24.6386 8.13317C23.5367 9.50554 22.6642 10.9863 21.797 12.4429L21.7907 12.4489ZM27.5633 13.2133C26.7508 13.3277 26.0289 13.1893 25.2101 13.1231C24.4271 13.0087 23.4399 12.9244 22.6579 12.6656C23.5009 11.1066 24.4881 9.5898 25.6795 8.19336L27.5391 8.44617C27.6233 9.92688 27.5696 11.6423 27.5696 13.2073L27.5633 13.2133ZM28.4663 13.2434C28.4063 11.7266 28.4358 10.0473 28.4663 8.47627C29.0504 8.392 29.6819 8.30171 30.266 8.22346C31.3973 9.64398 32.5055 11.1066 33.258 12.6656C31.6868 13.0388 30.0913 13.2434 28.4663 13.2434ZM37.7235 11.2451C36.5921 11.7266 35.425 12.1841 34.1789 12.4429C33.2822 10.9321 32.2951 9.42127 31.1868 7.95862C31.5962 7.7359 32.0898 7.56736 32.5234 7.33864C34.4136 8.27763 36.2427 9.6199 37.7782 11.1548L37.7235 11.2451ZM34.0105 6.36955C36.448 7.00156 38.7412 8.07899 40.8303 9.56573L40.7692 9.68009L38.7654 10.7936H38.6212C37.0857 9.25875 35.2861 7.91648 33.4559 6.85711C33.5169 6.65847 33.8053 6.51401 34.0105 6.36955ZM32.8486 6.08063V6.14082C30.3207 7.96464 26.2278 8.13317 23.5609 6.45382C23.4104 6.33946 23.121 6.28528 23.0915 6.08665C26.1667 5.37639 29.7966 5.3162 32.8486 6.08665V6.08063ZM15.1404 9.6199C16.9695 8.27763 19.0039 7.28447 21.1466 6.59828C21.2371 6.50799 21.2919 6.42372 21.4055 6.42372V6.48391C21.6402 6.53808 21.8149 6.27927 22.0138 6.45382C22.1885 6.59828 22.3927 6.71264 22.5379 6.85711C20.7383 7.96464 18.9681 9.28283 17.3431 10.8779C16.5601 10.595 15.8318 10.1677 15.1341 9.68009V9.62592L15.1404 9.6199Z" fill="black"/>
<path d="M20.0952 26.7961V20.0706H21.6107V26.7961H20.0952ZM25.2501 26.92C24.8102 26.92 24.3702 26.8409 23.9303 26.6827C23.4967 26.5177 23.1084 26.2735 22.7642 25.9503L23.6304 24.9085C23.8714 25.1148 24.1366 25.2833 24.425 25.4139C24.7207 25.5446 25.0091 25.6099 25.2911 25.6099C25.6079 25.6099 25.8415 25.5514 25.9931 25.4346C26.151 25.3177 26.2299 25.1595 26.2299 24.9601C26.2299 24.8569 26.2057 24.7675 26.1583 24.6918C26.1162 24.6162 26.051 24.5509 25.9615 24.4958C25.8794 24.434 25.7763 24.3789 25.6521 24.3308C25.5353 24.2758 25.4048 24.2174 25.2606 24.1555L24.3839 23.7841C24.2113 23.7154 24.0429 23.6259 23.8787 23.5159C23.7198 23.4058 23.5756 23.2787 23.4451 23.1342C23.321 22.983 23.222 22.811 23.1463 22.6185C23.0705 22.4191 23.0326 22.1955 23.0326 21.948C23.0326 21.6729 23.0905 21.4151 23.2073 21.1744C23.3252 20.9267 23.4894 20.7136 23.703 20.5348C23.9156 20.349 24.1671 20.2046 24.4555 20.1015C24.7512 19.9984 25.0754 19.9468 25.4258 19.9468C25.8173 19.9468 26.2025 20.0225 26.5814 20.1737C26.9655 20.325 27.3034 20.5451 27.5917 20.8339L26.8182 21.7932C26.5982 21.6213 26.3783 21.4906 26.1583 21.4013C25.9384 21.305 25.6942 21.2569 25.4258 21.2569C25.1638 21.2569 24.9543 21.3118 24.7965 21.4219C24.6449 21.525 24.5691 21.6729 24.5691 21.8655C24.5691 21.9686 24.5934 22.058 24.6418 22.1337C24.6965 22.2024 24.7691 22.2677 24.8586 22.3296C24.9543 22.3847 25.0648 22.4397 25.188 22.4946C25.3122 22.5428 25.4458 22.5979 25.5911 22.6598L26.4572 23.0104C26.8698 23.1755 27.1929 23.4025 27.4265 23.6913C27.6675 23.98 27.7875 24.3618 27.7875 24.8363C27.7875 25.1182 27.7296 25.3864 27.6128 25.6409C27.5023 25.8884 27.337 26.1085 27.1171 26.3011C26.9045 26.4867 26.6393 26.6381 26.3225 26.7549C26.0068 26.865 25.6489 26.92 25.2501 26.92ZM31.6625 26.92C31.2089 26.92 30.7932 26.8409 30.4144 26.6827C30.0439 26.5177 29.724 26.2838 29.4556 25.9812C29.1872 25.6787 28.9778 25.3107 28.8262 24.8776C28.6821 24.4443 28.6094 23.9526 28.6094 23.4025C28.6094 22.8523 28.6821 22.364 28.8262 21.9377C28.9778 21.5044 29.1872 21.1434 29.4556 20.8545C29.724 20.5588 30.0439 20.3354 30.4144 20.184C30.7932 20.0258 31.2089 19.9468 31.6625 19.9468C32.1172 19.9468 32.5297 20.0258 32.9013 20.184C33.2791 20.3354 33.6022 20.5588 33.8706 20.8545C34.1389 21.1503 34.3452 21.5147 34.4894 21.948C34.6409 22.3743 34.7167 22.8592 34.7167 23.4025C34.7167 23.9526 34.6409 24.4443 34.4894 24.8776C34.3452 25.3107 34.1389 25.6787 33.8706 25.9812C33.6022 26.2838 33.2791 26.5177 32.9013 26.6827C32.5297 26.8409 32.1172 26.92 31.6625 26.92ZM31.6625 25.6099C32.1235 25.6099 32.4877 25.4139 32.756 25.022C33.0244 24.6231 33.1591 24.0833 33.1591 23.4025C33.1591 22.7285 33.0244 22.2024 32.756 21.8241C32.4877 21.446 32.1235 21.2569 31.6625 21.2569C31.2026 21.2569 30.8374 21.446 30.5691 21.8241C30.3018 22.2024 30.167 22.7285 30.167 23.4025C30.167 24.0833 30.3018 24.6231 30.5691 25.022C30.8374 25.4139 31.2026 25.6099 31.6625 25.6099ZM14.0006 36.268V35.4016C14.4205 35.0097 14.8015 34.6451 15.1456 34.3082C15.4961 33.9644 15.7961 33.6445 16.0434 33.3488C16.2981 33.0462 16.4938 32.7678 16.6306 32.5133C16.7759 32.252 16.8474 32.0044 16.8474 31.7706C16.8474 31.4474 16.7653 31.2032 16.6001 31.0382C16.4349 30.8663 16.2086 30.7803 15.9192 30.7803C15.6782 30.7803 15.4656 30.8491 15.2793 30.9866C15.0941 31.1173 14.9183 31.272 14.7541 31.4508L13.928 30.6359C14.2521 30.292 14.5816 30.0342 14.9183 29.8622C15.2562 29.6835 15.6582 29.594 16.1255 29.594C16.4486 29.594 16.7411 29.6456 17.0021 29.7487C17.2705 29.845 17.501 29.9861 17.6936 30.1717C17.8862 30.3505 18.0335 30.5671 18.1367 30.8216C18.2398 31.0761 18.2914 31.3614 18.2914 31.6778C18.2914 31.9529 18.2335 32.2348 18.1167 32.5236C17.9999 32.8055 17.8409 33.091 17.642 33.3797C17.4494 33.6617 17.2263 33.9471 16.9716 34.236C16.7243 34.518 16.4664 34.7964 16.1981 35.0715C16.3633 35.0509 16.5454 35.0336 16.7443 35.02C16.9506 34.9993 17.1326 34.989 17.2916 34.989H18.6113V36.268H14.0006ZM20.7088 36.268C20.7362 35.7248 20.7846 35.2262 20.853 34.7723C20.9288 34.3116 21.0319 33.8749 21.1624 33.4624C21.3003 33.0429 21.4718 32.6337 21.6781 32.2348C21.8917 31.8359 22.1528 31.4233 22.4622 30.9969H19.5227V29.7178H24.0819V30.6463C23.704 31.107 23.3978 31.5402 23.1641 31.9459C22.9368 32.3448 22.7579 32.7609 22.6274 33.1941C22.5043 33.6204 22.4148 34.0812 22.359 34.5764C22.3043 35.0646 22.2633 35.6286 22.2359 36.268H20.7088ZM27.2423 36.3919C26.8908 36.3919 26.5709 36.3196 26.2825 36.1752C25.9941 36.024 25.7458 35.8039 25.5395 35.515C25.3406 35.2262 25.1827 34.8686 25.0648 34.4423C24.9554 34.0159 24.9007 33.5242 24.9007 32.9672C24.9007 32.4101 24.9554 31.9219 25.0648 31.5024C25.1827 31.0829 25.3406 30.7321 25.5395 30.4502C25.7458 30.1614 25.9941 29.9482 26.2825 29.8106C26.5709 29.6662 26.8908 29.594 27.2423 29.594C27.5928 29.594 27.9127 29.6662 28.2011 29.8106C28.4905 29.9482 28.7347 30.1614 28.9336 30.4502C29.1399 30.7321 29.2977 31.0829 29.4082 31.5024C29.525 31.9219 29.584 32.4101 29.584 32.9672C29.584 33.5242 29.525 34.0159 29.4082 34.4423C29.2977 34.8686 29.1399 35.2262 28.9336 35.515C28.7347 35.8039 28.4905 36.024 28.2011 36.1752C27.9127 36.3196 27.5928 36.3919 27.2423 36.3919ZM27.2423 35.2159C27.3728 35.2159 27.4928 35.185 27.6033 35.1231C27.7128 35.0543 27.8096 34.934 27.8917 34.762C27.9738 34.5902 28.0359 34.3598 28.078 34.0709C28.1253 33.7821 28.1495 33.4142 28.1495 32.9672C28.1495 32.5202 28.1253 32.1557 28.078 31.8737C28.0359 31.5849 27.9738 31.3614 27.8917 31.2032C27.8096 31.0382 27.7128 30.9247 27.6033 30.8629C27.4928 30.801 27.3728 30.77 27.2423 30.77C27.1181 30.77 27.0013 30.801 26.8908 30.8629C26.7814 30.9247 26.6845 31.0382 26.6024 31.2032C26.5193 31.3614 26.4541 31.5849 26.4067 31.8737C26.3583 32.1557 26.3341 32.5202 26.3341 32.9672C26.3341 33.4142 26.3583 33.7821 26.4067 34.0709C26.4541 34.3598 26.5193 34.5902 26.6024 34.762C26.6845 34.934 26.7814 35.0543 26.8908 35.1231C27.0013 35.185 27.1181 35.2159 27.2423 35.2159ZM32.6918 36.3919C32.3414 36.3919 32.0214 36.3196 31.732 36.1752C31.4436 36.024 31.1963 35.8039 30.99 35.515C30.7901 35.2262 30.6322 34.8686 30.5154 34.4423C30.4049 34.0159 30.3502 33.5242 30.3502 32.9672C30.3502 32.4101 30.4049 31.9219 30.5154 31.5024C30.6322 31.0829 30.7901 30.7321 30.99 30.4502C31.1963 30.1614 31.4436 29.9482 31.732 29.8106C32.0214 29.6662 32.3414 29.594 32.6918 29.594C33.0423 29.594 33.3622 29.6662 33.6506 29.8106C33.94 29.9482 34.1842 30.1614 34.3831 30.4502C34.5894 30.7321 34.7483 31.0829 34.8577 31.5024C34.9746 31.9219 35.0335 32.4101 35.0335 32.9672C35.0335 33.5242 34.9746 34.0159 34.8577 34.4423C34.7483 34.8686 34.5894 35.2262 34.3831 35.515C34.1842 35.8039 33.94 36.024 33.6506 36.1752C33.3622 36.3196 33.0423 36.3919 32.6918 36.3919ZM32.6918 35.2159C32.8223 35.2159 32.9423 35.185 33.0528 35.1231C33.1623 35.0543 33.2591 34.934 33.3412 34.762C33.4243 34.5902 33.4864 34.3598 33.5275 34.0709C33.5759 33.7821 33.599 33.4142 33.599 32.9672C33.599 32.5202 33.5759 32.1557 33.5275 31.8737C33.4864 31.5849 33.4243 31.3614 33.3412 31.2032C33.2591 31.0382 33.1623 30.9247 33.0528 30.8629C32.9423 30.801 32.8223 30.77 32.6918 30.77C32.5676 30.77 32.4508 30.801 32.3414 30.8629C32.2309 30.9247 32.1351 31.0382 32.052 31.2032C31.9699 31.3614 31.9046 31.5849 31.8562 31.8737C31.8078 32.1557 31.7836 32.5202 31.7836 32.9672C31.7836 33.4142 31.8078 33.7821 31.8562 34.0709C31.9046 34.3598 31.9699 34.5902 32.052 34.762C32.1351 34.934 32.2309 35.0543 32.3414 35.1231C32.4508 35.185 32.5676 35.2159 32.6918 35.2159ZM36.1407 36.268V35.0406H37.5635V31.2548H36.3364V30.3161C36.6942 30.2474 36.9963 30.1649 37.2436 30.0686C37.492 29.9723 37.7319 29.8554 37.9666 29.7178H39.0801V35.0406H40.3072V36.268H36.1407Z" fill="black"/>
<path d="M50.2546 34.836C47.3341 44.3543 38.4758 51.2746 27.9999 51.2746C17.525 51.2746 8.66562 44.3543 5.74512 34.836H6.7281C9.61598 43.8285 18.0481 50.3369 27.9999 50.3369C37.9527 50.3369 46.3838 43.8285 49.2717 34.836H50.2546ZM27.9999 4.72434C38.4758 4.72434 47.3341 11.6447 50.2546 21.163H49.2717C46.3838 12.1704 37.9527 5.6621 27.9999 5.6621C18.0481 5.6621 9.61598 12.1704 6.7281 21.163H5.74512C8.66562 11.6447 17.525 4.72434 27.9999 4.72434Z" fill="black"/>
</svg>
