<svg width="20" height="20" viewBox="0 0 20 20" fill="none" xmlns="http://www.w3.org/2000/svg">
<g clip-path="url(#clip0_24480_24406)">
<path d="M13.7498 6.66667C13.98 6.66667 14.1665 6.48012 14.1665 6.25C14.1665 6.01988 13.98 5.83333 13.7498 5.83333C13.5197 5.83333 13.3332 6.01988 13.3332 6.25C13.3332 6.48012 13.5197 6.66667 13.7498 6.66667Z" fill="#0A0A0A"/>
<path d="M1.6665 14.9999V17.4999C1.6665 17.9999 1.99984 18.3333 2.49984 18.3333H5.83317V15.8333H8.33317V13.3333H9.99984L11.1665 12.1666C12.3247 12.57 13.5855 12.5685 14.7427 12.1622C15.8999 11.7559 16.885 10.969 17.5368 9.93003C18.1886 8.89111 18.4685 7.66174 18.3308 6.44304C18.193 5.22435 17.6458 4.08847 16.7785 3.22124C15.9113 2.354 14.7754 1.80675 13.5567 1.669C12.338 1.53126 11.1087 1.81118 10.0697 2.46296C9.03081 3.11475 8.24383 4.09982 7.83754 5.25703C7.43126 6.41423 7.42972 7.67507 7.83317 8.83326L1.6665 14.9999Z" stroke="#0A0A0A" stroke-width="1.5" stroke-linecap="round" stroke-linejoin="round"/>
<path d="M13.7498 6.66667C13.98 6.66667 14.1665 6.48012 14.1665 6.25C14.1665 6.01988 13.98 5.83333 13.7498 5.83333C13.5197 5.83333 13.3332 6.01988 13.3332 6.25C13.3332 6.48012 13.5197 6.66667 13.7498 6.66667Z" stroke="#0A0A0A" stroke-width="1.5" stroke-linecap="round" stroke-linejoin="round"/>
</g>
<defs>
<clipPath id="clip0_24480_24406">
<rect width="20" height="20" fill="white"/>
</clipPath>
</defs>
</svg>

