<svg width="20" height="20" viewBox="0 0 20 20" fill="none" xmlns="http://www.w3.org/2000/svg">
<g clip-path="url(#clip0_24654_96030)">
<path d="M18.3332 14.7083L10.6915 18.175C10.4744 18.274 10.2385 18.3253 9.99984 18.3253C9.76118 18.3253 9.52531 18.274 9.30817 18.175L1.6665 14.7083M18.3332 10.5416L10.6915 14.0083C10.4744 14.1073 10.2385 14.1586 9.99984 14.1586C9.76118 14.1586 9.52531 14.1073 9.30817 14.0083L1.6665 10.5416M10.6915 1.8168C10.4743 1.71776 10.2385 1.6665 9.99981 1.6665C9.76115 1.6665 9.52528 1.71776 9.30814 1.8168L2.16647 5.0668C2.0186 5.132 1.89287 5.2388 1.80461 5.37418C1.71635 5.50956 1.66935 5.66769 1.66935 5.8293C1.66935 5.99091 1.71635 6.14904 1.80461 6.28442C1.89287 6.4198 2.0186 6.5266 2.16647 6.5918L9.31647 9.85013C9.53361 9.94918 9.76948 10.0004 10.0081 10.0004C10.2468 10.0004 10.4827 9.94918 10.6998 9.85013L17.8498 6.60013C17.9977 6.53493 18.1234 6.42814 18.2117 6.29275C18.2999 6.15737 18.3469 5.99925 18.3469 5.83763C18.3469 5.67602 18.2999 5.5179 18.2117 5.38251C18.1234 5.24713 17.9977 5.14034 17.8498 5.07513L10.6915 1.8168Z" stroke="#0A0A0A" stroke-width="1.5" stroke-linecap="round" stroke-linejoin="round"/>
</g>
<defs>
<clipPath id="clip0_24654_96030">
<rect width="20" height="20" fill="white"/>
</clipPath>
</defs>
</svg>
