<svg width="20" height="20" viewBox="0 0 20 20" fill="none" xmlns="http://www.w3.org/2000/svg">
<g clip-path="url(#clip0_24552_74722)">
<path d="M8.33333 10.8335C8.69121 11.3119 9.1478 11.7078 9.67213 11.9943C10.1965 12.2807 10.7763 12.4511 11.3722 12.4937C11.9682 12.5364 12.5663 12.4504 13.1261 12.2416C13.6859 12.0328 14.1943 11.706 14.6167 11.2835L17.1167 8.78347C17.8757 7.99762 18.2956 6.94512 18.2861 5.85263C18.2766 4.76014 17.8384 3.71509 17.0659 2.94256C16.2934 2.17002 15.2483 1.73182 14.1558 1.72233C13.0634 1.71283 12.0108 2.13281 11.225 2.8918L9.79167 4.3168M11.6668 9.16681C11.309 8.68837 10.8524 8.29249 10.328 8.00603C9.80371 7.71957 9.22391 7.54922 8.62796 7.50654C8.03201 7.46385 7.43384 7.54984 6.87405 7.75866C6.31425 7.96748 5.8059 8.29426 5.3835 8.71681L2.8835 11.2168C2.12451 12.0027 1.70453 13.0552 1.71402 14.1477C1.72352 15.2401 2.16172 16.2852 2.93426 17.0577C3.70679 17.8303 4.75184 18.2685 5.84433 18.278C6.93681 18.2874 7.98932 17.8675 8.77517 17.1085L10.2002 15.6835" stroke="#171717" stroke-width="1.5" stroke-linecap="round" stroke-linejoin="round"/>
</g>
<defs>
<clipPath id="clip0_24552_74722">
<rect width="20" height="20" fill="white"/>
</clipPath>
</defs>
</svg>
