<svg width="20" height="20" viewBox="0 0 20 20" fill="none" xmlns="http://www.w3.org/2000/svg">
<path d="M5.83333 8.33329V5.83329C5.83333 4.72822 6.27232 3.66842 7.05372 2.88701C7.83512 2.10561 8.89493 1.66663 10 1.66663C11.1051 1.66663 12.1649 2.10561 12.9463 2.88701C13.7277 3.66842 14.1667 4.72822 14.1667 5.83329V8.33329M10.8333 13.3333C10.8333 13.7935 10.4602 14.1666 10 14.1666C9.53976 14.1666 9.16667 13.7935 9.16667 13.3333C9.16667 12.8731 9.53976 12.5 10 12.5C10.4602 12.5 10.8333 12.8731 10.8333 13.3333ZM4.16667 8.33329H15.8333C16.7538 8.33329 17.5 9.07948 17.5 9.99996V16.6666C17.5 17.5871 16.7538 18.3333 15.8333 18.3333H4.16667C3.24619 18.3333 2.5 17.5871 2.5 16.6666V9.99996C2.5 9.07948 3.24619 8.33329 4.16667 8.33329Z" stroke="#171717" stroke-width="1.5" stroke-linecap="round" stroke-linejoin="round"/>
</svg>

