<svg width="20" height="20" viewBox="0 0 20 20" fill="none" xmlns="http://www.w3.org/2000/svg">
<g clip-path="url(#clip0_24747_44121)">
<circle cx="10" cy="10" r="10" fill="#737373"/>
<path fill-rule="evenodd" clip-rule="evenodd" d="M6.50892 5.16553C5.34402 5.05362 4.33594 5.96854 4.33594 7.13769V12.8623C4.33594 14.0315 5.34402 14.9464 6.50893 14.8345L14.2613 14.0898C15.2784 13.9921 16.0547 13.1384 16.0547 12.1176V7.8824C16.0547 6.86163 15.2784 6.00793 14.2613 5.91023L6.50892 5.16553ZM14.0715 10.9906C14.5694 10.9906 14.973 10.5471 14.973 10C14.973 9.45289 14.5694 9.00937 14.0715 9.00937C13.5737 9.00937 13.1701 9.45289 13.1701 10C13.1701 10.5471 13.5737 10.9906 14.0715 10.9906Z" fill="#FAFAFA"/>
</g>
<defs>
<clipPath id="clip0_24747_44121">
<rect width="20" height="20" fill="white"/>
</clipPath>
</defs>
</svg>

