<svg width="133" height="28" viewBox="0 0 133 28" fill="none" xmlns="http://www.w3.org/2000/svg">
<g clip-path="url(#clip0_24509_4)">
<circle cx="14" cy="14" r="14" fill="#0A0A0A"/>
<path fill-rule="evenodd" clip-rule="evenodd" d="M9.11249 7.23174C7.48163 7.07507 6.07031 8.35596 6.07031 9.99277V18.0072C6.07031 19.644 7.48163 20.9249 9.11249 20.7683L19.9659 19.7257C21.3897 19.5889 22.4766 18.3937 22.4766 16.9646V11.0354C22.4766 9.60628 21.3897 8.4111 19.9659 8.27432L9.11249 7.23174ZM19.7001 15.3869C20.3971 15.3869 20.9621 14.766 20.9621 14C20.9621 13.234 20.3971 12.6131 19.7001 12.6131C19.0031 12.6131 18.4381 13.234 18.4381 14C18.4381 14.766 19.0031 15.3869 19.7001 15.3869Z" fill="#FAFAFA"/>
</g>
<path d="M35 20.7293V7.66267H42.952V9.94H37.6507V13.16H42.504V15.4373H37.6507V20.7293H35Z" fill="#0A0A0A"/>
<path d="M43.3144 15.8947C43.3144 13.0667 45.6104 10.836 48.6811 10.836C51.7611 10.836 54.0477 13.0667 54.0477 15.8947C54.0477 18.7227 51.7611 20.9533 48.6811 20.9533C45.6104 20.9533 43.3144 18.7227 43.3144 15.8947ZM45.8904 15.8947C45.8904 17.472 47.1037 18.6853 48.6811 18.6853C50.2677 18.6853 51.4811 17.472 51.4811 15.8947C51.4811 14.3267 50.2677 13.104 48.6811 13.104C47.1037 13.104 45.8904 14.3267 45.8904 15.8947Z" fill="#0A0A0A"/>
<path d="M55.2825 20.7293V7.10267H57.8492V20.7293H55.2825Z" fill="#0A0A0A"/>
<path d="M59.788 20.7293V11.06H62.3547V20.7293H59.788ZM59.5547 8.484C59.5547 7.644 60.2174 7 61.076 7C61.9347 7 62.5974 7.644 62.5974 8.484C62.5974 9.324 61.9347 9.968 61.076 9.968C60.2174 9.968 59.5547 9.324 59.5547 8.484Z" fill="#0A0A0A"/>
<path d="M63.6122 15.8947C63.6122 13.0667 65.9082 10.836 68.9789 10.836C72.0589 10.836 74.3455 13.0667 74.3455 15.8947C74.3455 18.7227 72.0589 20.9533 68.9789 20.9533C65.9082 20.9533 63.6122 18.7227 63.6122 15.8947ZM66.1882 15.8947C66.1882 17.472 67.4015 18.6853 68.9789 18.6853C70.5655 18.6853 71.7789 17.472 71.7789 15.8947C71.7789 14.3267 70.5655 13.104 68.9789 13.104C67.4015 13.104 66.1882 14.3267 66.1882 15.8947Z" fill="#0A0A0A"/>
<path d="M85.7973 7.66267H88.4107L90.9213 17.0333L93.2267 7.66267H95.9893L92.368 20.7293H89.708L87.104 11.2747L84.5 20.7293H81.84L78.2187 7.66267H80.9813L83.2867 17.0333L85.7973 7.66267Z" fill="#0A0A0A"/>
<path d="M95.4187 15.8947C95.4187 13.0667 97.388 10.836 100.085 10.836C101.439 10.836 102.531 11.3587 103.305 12.2173V11.06H105.844V20.7293H103.305V19.572C102.531 20.4307 101.439 20.9533 100.085 20.9533C97.388 20.9533 95.4187 18.7227 95.4187 15.8947ZM97.9947 15.8947C97.9947 17.472 99.152 18.6853 100.636 18.6853C102.129 18.6853 103.305 17.472 103.305 15.8947C103.305 14.3267 102.129 13.104 100.636 13.104C99.152 13.104 97.9947 14.3267 97.9947 15.8947Z" fill="#0A0A0A"/>
<path d="M107.715 20.7293V7.10267H110.282V20.7293H107.715Z" fill="#0A0A0A"/>
<path d="M112.22 20.7293V7.10267H114.787V20.7293H112.22Z" fill="#0A0A0A"/>
<path d="M118.639 16.66C118.863 18.004 119.983 18.9093 121.533 18.9093C122.858 18.9093 123.81 18.4613 124.715 17.612L126.003 18.9C124.949 20.0947 123.549 20.9533 121.542 20.9533C118.238 20.9533 116.045 18.7227 116.045 15.8947C116.045 13.0667 118.303 10.836 121.299 10.836C124.258 10.836 126.367 13.0293 126.367 15.7267C126.367 16.0253 126.321 16.3987 126.255 16.66H118.639ZM121.281 12.88C120.067 12.88 119.05 13.6547 118.705 14.8307H123.726C123.446 13.6827 122.531 12.88 121.281 12.88Z" fill="#0A0A0A"/>
<path d="M130.521 13.2907V17.3787C130.521 18.3027 130.922 18.7227 131.996 18.7227C132.285 18.7227 132.658 18.704 132.91 18.676V20.5427C132.49 20.804 131.856 20.9533 131.202 20.9533C129.112 20.9533 127.954 19.8053 127.954 17.5373V13.2907H126.265V11.06H127.954V8.764L130.521 8.26V11.06H132.798V13.2907H130.521Z" fill="#0A0A0A"/>
<defs>
<clipPath id="clip0_24509_4">
<rect width="28" height="28" fill="white"/>
</clipPath>
</defs>
</svg>
