<svg width="36" height="36" viewBox="0 0 36 36" fill="none" xmlns="http://www.w3.org/2000/svg">
<circle cx="18" cy="18" r="18" fill="#171717"/>
<path fill-rule="evenodd" clip-rule="evenodd" d="M11.7161 9.29795C9.61924 9.09652 7.80469 10.7434 7.80469 12.8478V23.1522C7.80469 25.2566 9.61924 26.9035 11.7161 26.7021L25.6704 25.3616C27.5011 25.1857 28.8984 23.6491 28.8984 21.8117V14.1883C28.8984 12.3509 27.5011 10.8143 25.6704 10.6384L11.7161 9.29795ZM25.3287 19.7831C26.2249 19.7831 26.9513 18.9848 26.9513 18C26.9513 17.0152 26.2249 16.2169 25.3287 16.2169C24.4326 16.2169 23.7061 17.0152 23.7061 18C23.7061 18.9848 24.4326 19.7831 25.3287 19.7831Z" fill="#FAFAFA"/>
</svg>
