<svg width="20" height="20" viewBox="0 0 20 20" fill="none" xmlns="http://www.w3.org/2000/svg">
<path d="M18.3332 10.8333V4.99992C18.3332 4.55789 18.1576 4.13397 17.845 3.82141C17.5325 3.50885 17.1085 3.33325 16.6665 3.33325H3.33317C2.89114 3.33325 2.46722 3.50885 2.15466 3.82141C1.8421 4.13397 1.6665 4.55789 1.6665 4.99992V14.9999C1.6665 15.9166 2.4165 16.6666 3.33317 16.6666H9.99984M18.3332 5.83325L10.8582 10.5833C10.6009 10.7444 10.3034 10.8299 9.99984 10.8299C9.69624 10.8299 9.39878 10.7444 9.1415 10.5833L1.6665 5.83325M13.3332 15.8333L14.9998 17.4999L18.3332 14.1666" stroke="#0A0A0A" stroke-width="1.5" stroke-linecap="round" stroke-linejoin="round"/>
</svg>
