<svg width="20" height="20" viewBox="0 0 20 20" fill="none" xmlns="http://www.w3.org/2000/svg">
<g clip-path="url(#clip0_24626_64873)">
<path d="M7.36234 11.6665H4.1665C3.99695 11.6757 3.83426 11.7366 3.70022 11.8408C3.56619 11.9451 3.46719 12.0878 3.4165 12.2498L1.74984 17.2498C1.6665 17.3332 1.6665 17.4165 1.6665 17.4998C1.6665 17.9998 1.99984 18.3332 2.49984 18.3332H17.4998C17.9998 18.3332 18.3332 17.9998 18.3332 17.4998C18.3332 17.4165 18.3332 17.3332 18.2498 17.2498L16.5832 12.2498C16.5325 12.0878 16.4335 11.9451 16.2995 11.8408C16.1654 11.7366 16.0027 11.6757 15.8332 11.6665H12.6373M14.9998 6.6665C14.9998 10.4165 9.99984 14.1665 9.99984 14.1665C9.99984 14.1665 4.99984 10.4165 4.99984 6.6665C4.99984 5.34042 5.52662 4.06865 6.4643 3.13097C7.40199 2.19329 8.67375 1.6665 9.99984 1.6665C11.3259 1.6665 12.5977 2.19329 13.5354 3.13097C14.4731 4.06865 14.9998 5.34042 14.9998 6.6665ZM11.6665 6.6665C11.6665 7.58698 10.9203 8.33317 9.99984 8.33317C9.07936 8.33317 8.33317 7.58698 8.33317 6.6665C8.33317 5.74603 9.07936 4.99984 9.99984 4.99984C10.9203 4.99984 11.6665 5.74603 11.6665 6.6665Z" stroke="#0A0A0A" stroke-width="1.5" stroke-linecap="round" stroke-linejoin="round"/>
</g>
<defs>
<clipPath id="clip0_24626_64873">
<rect width="20" height="20" fill="white"/>
</clipPath>
</defs>
</svg>
