<svg width="20" height="20" viewBox="0 0 20 20" fill="none" xmlns="http://www.w3.org/2000/svg">
<path d="M16.6663 8.33335C16.6663 13.3334 9.99967 18.3334 9.99967 18.3334C9.99967 18.3334 3.33301 13.3334 3.33301 8.33335C3.33301 6.56524 4.03539 4.86955 5.28563 3.61931C6.53587 2.36907 8.23156 1.66669 9.99967 1.66669C11.7678 1.66669 13.4635 2.36907 14.7137 3.61931C15.964 4.86955 16.6663 6.56524 16.6663 8.33335Z" stroke="#171717" stroke-width="1.5" stroke-linecap="round" stroke-linejoin="round"/>
<path d="M9.99967 10.8334C11.3804 10.8334 12.4997 9.71407 12.4997 8.33335C12.4997 6.95264 11.3804 5.83335 9.99967 5.83335C8.61896 5.83335 7.49967 6.95264 7.49967 8.33335C7.49967 9.71407 8.61896 10.8334 9.99967 10.8334Z" stroke="#171717" stroke-width="1.5" stroke-linecap="round" stroke-linejoin="round"/>
</svg>
