<svg width="20" height="20" viewBox="0 0 20 20" fill="none" xmlns="http://www.w3.org/2000/svg">
<g clip-path="url(#clip0_24561_76987)">
<path d="M14.9998 7.49984H16.6665C17.1085 7.49984 17.5325 7.67543 17.845 7.98799C18.1576 8.30055 18.3332 8.72448 18.3332 9.1665V18.3332L14.9998 14.9998H9.99984C9.55781 14.9998 9.13389 14.8242 8.82133 14.5117C8.50877 14.1991 8.33317 13.7752 8.33317 13.3332V12.4998M11.6665 7.49984C11.6665 7.94186 11.4909 8.36579 11.1783 8.67835C10.8658 8.99091 10.4419 9.1665 9.99984 9.1665H4.99984L1.6665 12.4998V3.33317C1.6665 2.4165 2.4165 1.6665 3.33317 1.6665H9.99984C10.4419 1.6665 10.8658 1.8421 11.1783 2.15466C11.4909 2.46722 11.6665 2.89114 11.6665 3.33317V7.49984Z" stroke="#0A0A0A" stroke-width="1.5" stroke-linecap="round" stroke-linejoin="round"/>
</g>
<defs>
<clipPath id="clip0_24561_76987">
<rect width="20" height="20" fill="white"/>
</clipPath>
</defs>
</svg>
