<svg width="20" height="20" viewBox="0 0 20 20" fill="none" xmlns="http://www.w3.org/2000/svg">
<path d="M14.9998 6.66671V5.00004C14.9998 4.55801 14.8242 4.13409 14.5117 3.82153C14.1991 3.50897 13.7752 3.33337 13.3332 3.33337H3.33317C2.89114 3.33337 2.46722 3.50897 2.15466 3.82153C1.8421 4.13409 1.6665 4.55801 1.6665 5.00004V10.8334C1.6665 11.2754 1.8421 11.6993 2.15466 12.0119C2.46722 12.3244 2.89114 12.5 3.33317 12.5H9.99984M8.33317 15.8334V12.5334V15.1584M5.83317 15.8334H9.99984M14.9998 10H16.6665C17.587 10 18.3332 10.7462 18.3332 11.6667V16.6667C18.3332 17.5872 17.587 18.3334 16.6665 18.3334H14.9998C14.0794 18.3334 13.3332 17.5872 13.3332 16.6667V11.6667C13.3332 10.7462 14.0794 10 14.9998 10Z" stroke="#0A0A0A" stroke-width="1.5" stroke-linecap="round" stroke-linejoin="round"/>
</svg>
