<svg width="20" height="20" viewBox="0 0 20 20" fill="none" xmlns="http://www.w3.org/2000/svg">
<path d="M18.3332 10.3335V8.00016C18.3332 7.06674 18.3332 6.60003 18.1515 6.24351C17.9917 5.92991 17.7368 5.67494 17.4232 5.51515C17.0666 5.3335 16.5999 5.3335 15.6665 5.3335H4.33317C3.39975 5.3335 2.93304 5.3335 2.57652 5.51515C2.26292 5.67494 2.00795 5.92991 1.84816 6.24351C1.6665 6.60003 1.6665 7.06674 1.6665 8.00016V11.0002C1.6665 11.9336 1.6665 12.4003 1.84816 12.7568C2.00795 13.0704 2.26292 13.3254 2.57652 13.4852C2.93304 13.6668 3.39975 13.6668 4.33317 13.6668H9.1665M9.99984 9.50016H10.004M14.1665 9.50016H14.1707M5.83317 9.50016H5.83734M16.0415 15.3335V13.8752C16.0415 13.0697 15.3886 12.4168 14.5832 12.4168C13.7778 12.4168 13.1248 13.0697 13.1248 13.8752V15.3335M10.2082 9.50016C10.2082 9.61522 10.1149 9.7085 9.99984 9.7085C9.88478 9.7085 9.7915 9.61522 9.7915 9.50016C9.7915 9.3851 9.88478 9.29183 9.99984 9.29183C10.1149 9.29183 10.2082 9.3851 10.2082 9.50016ZM14.3748 9.50016C14.3748 9.61522 14.2816 9.7085 14.1665 9.7085C14.0514 9.7085 13.9582 9.61522 13.9582 9.50016C13.9582 9.3851 14.0514 9.29183 14.1665 9.29183C14.2816 9.29183 14.3748 9.3851 14.3748 9.50016ZM6.0415 9.50016C6.0415 9.61522 5.94823 9.7085 5.83317 9.7085C5.71811 9.7085 5.62484 9.61522 5.62484 9.50016C5.62484 9.3851 5.71811 9.29183 5.83317 9.29183C5.94823 9.29183 6.0415 9.3851 6.0415 9.50016ZM12.9998 18.6668H16.1665C16.6332 18.6668 16.8666 18.6668 17.0448 18.576C17.2016 18.4961 17.3291 18.3686 17.409 18.2118C17.4998 18.0336 17.4998 17.8002 17.4998 17.3335V16.6668C17.4998 16.2001 17.4998 15.9668 17.409 15.7885C17.3291 15.6317 17.2016 15.5042 17.0448 15.4243C16.8666 15.3335 16.6332 15.3335 16.1665 15.3335H12.9998C12.5331 15.3335 12.2998 15.3335 12.1215 15.4243C11.9647 15.5042 11.8372 15.6317 11.7573 15.7885C11.6665 15.9668 11.6665 16.2001 11.6665 16.6668V17.3335C11.6665 17.8002 11.6665 18.0336 11.7573 18.2118C11.8372 18.3686 11.9647 18.4961 12.1215 18.576C12.2998 18.6668 12.5331 18.6668 12.9998 18.6668Z" stroke="#0A0A0A" stroke-width="1.5" stroke-linecap="round" stroke-linejoin="round"/>
</svg>
