<svg width="20" height="20" viewBox="0 0 20 20" fill="none" xmlns="http://www.w3.org/2000/svg">
<path d="M8.3335 13.3332H11.6668M7.3335 18.3332H12.6668C14.067 18.3332 14.767 18.3332 15.3018 18.0607C15.7722 17.821 16.1547 17.4386 16.3943 16.9681C16.6668 16.4334 16.6668 15.7333 16.6668 14.3332V5.6665C16.6668 4.26637 16.6668 3.56631 16.3943 3.03153C16.1547 2.56112 15.7722 2.17867 15.3018 1.93899C14.767 1.6665 14.067 1.6665 12.6668 1.6665H7.3335C5.93336 1.6665 5.2333 1.6665 4.69852 1.93899C4.22811 2.17867 3.84566 2.56112 3.60598 3.03153C3.3335 3.56631 3.3335 4.26637 3.3335 5.6665V14.3332C3.3335 15.7333 3.3335 16.4334 3.60598 16.9681C3.84566 17.4386 4.22811 17.821 4.69852 18.0607C5.2333 18.3332 5.93336 18.3332 7.3335 18.3332ZM12.5002 7.49984C12.5002 8.88055 11.3809 9.99984 10.0002 9.99984C8.61945 9.99984 7.50016 8.88055 7.50016 7.49984C7.50016 6.11913 8.61945 4.99984 10.0002 4.99984C11.3809 4.99984 12.5002 6.11913 12.5002 7.49984Z" stroke="#0A0A0A" stroke-width="1.5" stroke-linecap="round" stroke-linejoin="round"/>
</svg>
