<svg width="20" height="20" viewBox="0 0 20 20" fill="none" xmlns="http://www.w3.org/2000/svg">
<path d="M7.5 15.8334C7.5 17.2141 6.38071 18.3334 5 18.3334C3.61929 18.3334 2.5 17.2141 2.5 15.8334C2.5 14.4527 3.61929 13.3334 5 13.3334C6.38071 13.3334 7.5 14.4527 7.5 15.8334ZM7.5 15.8334H14.5833C15.3569 15.8334 16.0987 15.5261 16.6457 14.9791C17.1927 14.4322 17.5 13.6903 17.5 12.9167C17.5 12.1432 17.1927 11.4013 16.6457 10.8544C16.0987 10.3074 15.3569 10.0001 14.5833 10.0001H5.41667C4.64312 10.0001 3.90125 9.69279 3.35427 9.14581C2.80729 8.59883 2.5 7.85696 2.5 7.08341C2.5 6.30987 2.80729 5.568 3.35427 5.02102C3.90125 4.47404 4.64312 4.16675 5.41667 4.16675H12.5M12.5 4.16675C12.5 5.54746 13.6193 6.66675 15 6.66675C16.3807 6.66675 17.5 5.54746 17.5 4.16675C17.5 2.78604 16.3807 1.66675 15 1.66675C13.6193 1.66675 12.5 2.78604 12.5 4.16675Z" stroke="#171717" stroke-width="1.5" stroke-linecap="round" stroke-linejoin="round"/>
</svg>

