<svg width="20" height="20" viewBox="0 0 20 20" fill="none" xmlns="http://www.w3.org/2000/svg">
<path d="M5.83317 17.5H14.1665M9.99984 2.5V17.5M2.49984 5.83333H4.1665C5.83317 5.83333 8.33317 5 9.99984 4.16667C11.6665 5 14.1665 5.83333 15.8332 5.83333H17.4998M13.3332 13.3333L15.8332 6.66667L18.3332 13.3333C17.6082 13.875 16.7332 14.1667 15.8332 14.1667C14.9332 14.1667 14.0582 13.875 13.3332 13.3333ZM1.6665 13.3333L4.1665 6.66667L6.6665 13.3333C5.9415 13.875 5.0665 14.1667 4.1665 14.1667C3.2665 14.1667 2.3915 13.875 1.6665 13.3333Z" stroke="#0A0A0A" stroke-width="1.5" stroke-linecap="round" stroke-linejoin="round"/>
</svg>
