<svg width="20" height="20" viewBox="0 0 20 20" fill="none" xmlns="http://www.w3.org/2000/svg">
<path d="M16.6668 5.8335H9.16683M11.6668 14.1668H4.16683M11.6668 14.1668C11.6668 15.5475 12.7861 16.6668 14.1668 16.6668C15.5475 16.6668 16.6668 15.5475 16.6668 14.1668C16.6668 12.7861 15.5475 11.6668 14.1668 11.6668C12.7861 11.6668 11.6668 12.7861 11.6668 14.1668ZM8.3335 5.8335C8.3335 7.21421 7.21421 8.3335 5.8335 8.3335C4.45278 8.3335 3.3335 7.21421 3.3335 5.8335C3.3335 4.45278 4.45278 3.3335 5.8335 3.3335C7.21421 3.3335 8.3335 4.45278 8.3335 5.8335Z" stroke="#0A0A0A" stroke-width="1.5" stroke-linecap="round" stroke-linejoin="round"/>
</svg>
