<svg width="20" height="20" viewBox="0 0 20 20" fill="none" xmlns="http://www.w3.org/2000/svg">
<path d="M10.0002 12.0833V7.08333M7.50016 9.58333H12.5002M16.6668 10C16.6668 14.0904 12.2052 17.0653 10.5818 18.0124C10.3973 18.12 10.3051 18.1738 10.1749 18.2018C10.0739 18.2234 9.92646 18.2234 9.82543 18.2018C9.69524 18.1738 9.603 18.12 9.4185 18.0124C7.79513 17.0653 3.3335 14.0904 3.3335 10V6.01467C3.3335 5.34841 3.3335 5.01528 3.44246 4.72892C3.53872 4.47595 3.69515 4.25023 3.89821 4.07128C4.12808 3.8687 4.43999 3.75173 5.06383 3.51779L9.532 1.84223C9.70524 1.77726 9.79187 1.74478 9.88098 1.7319C9.96002 1.72048 10.0403 1.72048 10.1193 1.7319C10.2085 1.74478 10.2951 1.77726 10.4683 1.84223L14.9365 3.51779C15.5603 3.75173 15.8722 3.8687 16.1021 4.07128C16.3052 4.25023 16.4616 4.47595 16.5579 4.72892C16.6668 5.01528 16.6668 5.34841 16.6668 6.01467V10Z" stroke="#171717" stroke-width="1.5" stroke-linecap="round" stroke-linejoin="round"/>
</svg>
