<svg width="20" height="20" viewBox="0 0 20 20" fill="none" xmlns="http://www.w3.org/2000/svg">
<path d="M9.99992 1.66626C9.76771 1.66626 9.54313 1.74913 9.36658 1.89997C7.91658 3.16663 5.83325 4.16663 4.16659 4.16663C3.94557 4.16663 3.73361 4.25443 3.57733 4.41071C3.42105 4.56699 3.33325 4.77895 3.33325 4.99997V10.8333C3.33325 15 6.24992 17.0833 9.72492 18.2833C9.90453 18.3502 10.1017 18.3532 10.2833 18.2916C13.7499 17.0833 16.6666 15 16.6666 10.8333V4.99997C16.6666 4.77895 16.5788 4.56699 16.4225 4.41071C16.2662 4.25443 16.0543 4.16663 15.8333 4.16663C14.1666 4.16663 12.0916 3.17497 10.6333 1.89997C10.4567 1.74913 10.2321 1.66626 9.99992 1.66626ZM9.99992 1.66626V18.3333" stroke="#0A0A0A" stroke-width="1.5" stroke-linecap="round" stroke-linejoin="round"/>
</svg>

