<svg width="20" height="20" viewBox="0 0 20 20" fill="none" xmlns="http://www.w3.org/2000/svg">
<path d="M1.70801 1.7085H3.37467L5.59134 12.0585C5.67266 12.4375 5.88357 12.7764 6.18777 13.0167C6.49197 13.257 6.87043 13.3838 7.25801 13.3752H15.408C15.7873 13.3746 16.1551 13.2446 16.4505 13.0067C16.746 12.7688 16.9515 12.4373 17.033 12.0668L18.408 5.87516H4.26634M7.49984 17.5001C7.49984 17.9604 7.12674 18.3335 6.6665 18.3335C6.20627 18.3335 5.83317 17.9604 5.83317 17.5001C5.83317 17.0399 6.20627 16.6668 6.6665 16.6668C7.12674 16.6668 7.49984 17.0399 7.49984 17.5001ZM16.6665 17.5001C16.6665 17.9604 16.2934 18.3335 15.8332 18.3335C15.3729 18.3335 14.9998 17.9604 14.9998 17.5001C14.9998 17.0399 15.3729 16.6668 15.8332 16.6668C16.2934 16.6668 16.6665 17.0399 16.6665 17.5001Z" stroke="#0A0A0A" stroke-width="1.5" stroke-linecap="round" stroke-linejoin="round"/>
</svg>
