<svg width="20" height="20" viewBox="0 0 20 20" fill="none" xmlns="http://www.w3.org/2000/svg">
<path d="M10.8332 6.93363C11.3658 7.86792 11.646 8.92484 11.646 10.0003C11.646 11.0758 11.3658 12.1327 10.8332 13.067M13.7165 5.17521C14.549 6.64703 14.9866 8.30924 14.9866 10.0002C14.9866 11.6912 14.549 13.3534 13.7165 14.8252M16.5916 3.41699C17.7396 5.42085 18.3443 7.68982 18.3457 9.99922C18.3472 12.3086 17.7454 14.5783 16.6 16.5837M2.49984 5.00024H6.6665C7.12674 5.00024 7.49984 5.37334 7.49984 5.83358V14.1669C7.49984 14.6271 7.12674 15.0002 6.6665 15.0002H2.49984C2.0396 15.0002 1.6665 14.6271 1.6665 14.1669V5.83358C1.6665 5.37334 2.0396 5.00024 2.49984 5.00024Z" stroke="#0A0A0A" stroke-width="1.5" stroke-linecap="round" stroke-linejoin="round"/>
</svg>
