<svg width="56" height="56" viewBox="0 0 56 56" fill="none" xmlns="http://www.w3.org/2000/svg">
<path d="M28 0.5C43.1878 0.500001 55.5 12.8122 55.5 28C55.5 43.1878 43.1878 55.5 28 55.5C12.8122 55.5 0.5 43.1878 0.5 28C0.500002 12.8122 12.8122 0.5 28 0.5Z" stroke="black"/>
<path d="M17.6916 31.5152C17.2515 31.5152 16.8114 31.4363 16.3712 31.2784C15.938 31.1132 15.5494 30.869 15.2056 30.5459L16.072 29.504C16.3127 29.7103 16.5775 29.8786 16.8663 30.0091C17.162 30.1396 17.4509 30.2049 17.7329 30.2049C18.0491 30.2049 18.283 30.147 18.4343 30.0302C18.5925 29.9123 18.6715 29.7545 18.6715 29.5555C18.6715 29.4524 18.6474 29.3629 18.5994 29.2872C18.5581 29.2114 18.4927 29.1462 18.4034 29.0914C18.3209 29.0293 18.2176 28.9746 18.0939 28.9262C17.9769 28.8715 17.8463 28.8125 17.7019 28.7504L16.8251 28.3789C16.6532 28.3105 16.4847 28.2211 16.3197 28.1116C16.1615 28.0011 16.0171 27.8738 15.8864 27.7296C15.7626 27.578 15.6629 27.4065 15.5873 27.2139C15.5116 27.0139 15.4738 26.7908 15.4738 26.5435C15.4738 26.2677 15.5322 26.0099 15.6492 25.7699C15.7661 25.5216 15.9311 25.309 16.1442 25.1301C16.3575 24.9438 16.6085 24.7996 16.8974 24.6965C17.193 24.5933 17.5162 24.5418 17.867 24.5418C18.2589 24.5418 18.6441 24.6175 19.0222 24.7691C19.4074 24.9206 19.7443 25.1406 20.0332 25.4289L19.2595 26.3888C19.0395 26.2162 18.8194 26.0857 18.5994 25.9962C18.3793 25.9004 18.1351 25.852 17.867 25.852C17.6056 25.852 17.3959 25.9068 17.2377 26.0173C17.0864 26.1204 17.0108 26.2677 17.0108 26.4603C17.0108 26.5635 17.0348 26.6529 17.083 26.7287C17.138 26.7971 17.2102 26.8634 17.2996 26.9245C17.3959 26.9802 17.5059 27.035 17.6297 27.0897C17.7535 27.1381 17.8876 27.1928 18.032 27.2549L18.8985 27.6054C19.3111 27.7706 19.6343 27.9979 19.8682 28.2863C20.1089 28.5757 20.2291 28.9567 20.2291 29.4314C20.2291 29.7134 20.1707 29.9818 20.0538 30.2365C19.9437 30.4838 19.7787 30.7037 19.5586 30.8963C19.3455 31.0816 19.0807 31.2331 18.7644 31.3499C18.448 31.4604 18.0905 31.5152 17.6916 31.5152ZM24.1043 31.5152C23.6504 31.5152 23.2344 31.4363 22.8561 31.2784C22.4847 31.1132 22.165 30.8795 21.8968 30.5764C21.6286 30.2744 21.4188 29.906 21.2676 29.4724C21.1231 29.0399 21.0509 28.5473 21.0509 27.9979C21.0509 27.4475 21.1231 26.9592 21.2676 26.533C21.4188 26.0994 21.6286 25.7384 21.8968 25.45C22.165 25.1543 22.4847 24.9301 22.8561 24.7796C23.2344 24.6207 23.6504 24.5418 24.1043 24.5418C24.5581 24.5418 24.9708 24.6207 25.3421 24.7796C25.7203 24.9301 26.0435 25.1543 26.3118 25.45C26.58 25.7457 26.7862 26.1099 26.9307 26.5435C27.082 26.9697 27.1576 27.4538 27.1576 27.9979C27.1576 28.5473 27.082 29.0399 26.9307 29.4724C26.7862 29.906 26.58 30.2744 26.3118 30.5764C26.0435 30.8795 25.7203 31.1132 25.3421 31.2784C24.9708 31.4363 24.5581 31.5152 24.1043 31.5152ZM24.1043 30.2049C24.5651 30.2049 24.9295 30.0091 25.1977 29.6176C25.466 29.2188 25.6 28.6789 25.6 27.9979C25.6 27.3233 25.466 26.7971 25.1977 26.4193C24.9295 26.0415 24.5651 25.852 24.1043 25.852C23.6436 25.852 23.2791 26.0415 23.0108 26.4193C22.7427 26.7971 22.6086 27.3233 22.6086 27.9979C22.6086 28.6789 22.7427 29.2188 23.0108 29.6176C23.2791 30.0091 23.6436 30.2049 24.1043 30.2049ZM31.228 31.5152C30.8017 31.5152 30.3993 31.4426 30.0211 31.2984C29.6429 31.1468 29.3093 30.9269 29.0205 30.6385C28.7386 30.3491 28.5151 29.9923 28.35 29.5661C28.185 29.1325 28.1024 28.6336 28.1024 28.0695C28.1024 27.5128 28.1884 27.0181 28.3604 26.5845C28.5322 26.1446 28.7626 25.7731 29.0515 25.47C29.3403 25.1679 29.6773 24.9375 30.0624 24.7796C30.4474 24.6207 30.8533 24.5418 31.2796 24.5418C31.7128 24.5418 32.1013 24.6312 32.4452 24.8101C32.7891 24.9817 33.0744 25.1848 33.3014 25.4184L32.4968 26.3888C32.3249 26.2298 32.1426 26.1025 31.9501 26.0067C31.7645 25.9036 31.5512 25.852 31.3105 25.852C31.0836 25.852 30.8669 25.9036 30.6607 26.0067C30.4612 26.1025 30.2859 26.2435 30.1345 26.4298C29.9902 26.615 29.8732 26.8424 29.7839 27.1107C29.7014 27.3791 29.6601 27.6812 29.6601 28.0179C29.6601 28.7125 29.8079 29.2524 30.1036 29.6376C30.3993 30.0165 30.7947 30.2049 31.2899 30.2049C31.565 30.2049 31.8091 30.147 32.0223 30.0302C32.2424 29.906 32.4349 29.7544 32.6 29.5755L33.4046 30.5248C32.8407 31.1847 32.1151 31.5152 31.228 31.5152ZM36.0786 31.391V30.5248C36.4981 30.1333 36.8797 29.7681 37.2235 29.4314C37.5743 29.0872 37.8734 28.7683 38.121 28.4726C38.3754 28.1695 38.5715 27.8906 38.7089 27.637C38.8534 27.3749 38.9256 27.1276 38.9256 26.8939C38.9256 26.5708 38.8431 26.3267 38.678 26.1615C38.513 25.9899 38.2861 25.9036 37.9972 25.9036C37.7565 25.9036 37.5434 25.972 37.3577 26.1099C37.172 26.2404 36.9966 26.3951 36.8316 26.574L36.0064 25.7594C36.3296 25.4153 36.6596 25.1574 36.9966 24.9859C37.3336 24.807 37.7359 24.7175 38.2036 24.7175C38.5268 24.7175 38.819 24.7691 39.0803 24.8722C39.3485 24.968 39.5789 25.109 39.7715 25.2953C39.964 25.4742 40.1118 25.69 40.215 25.9446C40.3182 26.1993 40.3698 26.4845 40.3698 26.8013C40.3698 27.076 40.3113 27.3581 40.1943 27.6464C40.0775 27.9285 39.9193 28.2147 39.7199 28.5031C39.5273 28.7852 39.3039 29.0704 39.0494 29.3587C38.8019 29.6408 38.5439 29.9197 38.2758 30.1944C38.4408 30.1744 38.6231 30.1565 38.8225 30.1428C39.0288 30.1228 39.2109 30.1123 39.3691 30.1123H40.6895V31.391H36.0786Z" fill="black"/>
<path d="M28.0001 50.8074C40.5956 50.8074 50.8063 40.5966 50.8063 28.0011C50.8063 15.4056 40.5956 5.19487 28.0001 5.19487C15.4045 5.19487 5.19385 15.4056 5.19385 28.0011C5.19385 40.5966 15.4045 50.8074 28.0001 50.8074Z" stroke="black"/>
</svg>
