<svg width="20" height="20" viewBox="0 0 20 20" fill="none" xmlns="http://www.w3.org/2000/svg">
<path d="M9.40205 2.87775C9.59412 2.48864 9.69015 2.29408 9.82053 2.23192C9.93396 2.17784 10.0657 2.17784 10.1792 2.23192C10.3095 2.29408 10.4056 2.48864 10.5977 2.87775L12.4199 6.56939C12.4766 6.68427 12.5049 6.74171 12.5464 6.7863C12.5831 6.82579 12.6271 6.85778 12.6759 6.88051C12.7311 6.90618 12.7945 6.91544 12.9213 6.93397L16.9973 7.52975C17.4266 7.59248 17.6412 7.62385 17.7405 7.72869C17.8269 7.8199 17.8675 7.94524 17.8511 8.0698C17.8322 8.21297 17.6768 8.36431 17.3661 8.66698L14.4177 11.5387C14.3258 11.6282 14.2798 11.673 14.2502 11.7262C14.2239 11.7734 14.2071 11.8252 14.2006 11.8787C14.1933 11.9393 14.2041 12.0025 14.2258 12.1289L14.9215 16.1851C14.9948 16.6129 15.0315 16.8268 14.9626 16.9537C14.9026 17.0642 14.796 17.1416 14.6724 17.1646C14.5304 17.1909 14.3383 17.0899 13.9541 16.8878L10.3102 14.9715C10.1966 14.9118 10.1398 14.882 10.08 14.8702C10.0271 14.8598 9.97262 14.8598 9.91966 14.8702C9.85986 14.882 9.80309 14.9118 9.68955 14.9715L6.04561 16.8878C5.66143 17.0899 5.46935 17.1909 5.32731 17.1646C5.20374 17.1416 5.09711 17.0642 5.03712 16.9537C4.96817 16.8268 5.00486 16.6129 5.07823 16.1851L5.77391 12.1289C5.7956 12.0025 5.80644 11.9393 5.7991 11.8787C5.79261 11.8252 5.77576 11.7734 5.74951 11.7262C5.71986 11.673 5.6739 11.6282 5.58199 11.5387L2.63364 8.66697C2.32289 8.36431 2.16752 8.21297 2.14861 8.0698C2.13216 7.94524 2.1728 7.8199 2.25921 7.72869C2.35853 7.62385 2.57315 7.59248 3.00237 7.52975L7.07843 6.93397C7.20519 6.91544 7.26857 6.90618 7.32377 6.88051C7.37264 6.85778 7.41664 6.82579 7.45332 6.7863C7.49476 6.74171 7.52311 6.68427 7.57982 6.56939L9.40205 2.87775Z" stroke="#171717" stroke-width="1.5" stroke-linecap="round" stroke-linejoin="round"/>
</svg>
