<svg width="20" height="20" viewBox="0 0 20 20" fill="none" xmlns="http://www.w3.org/2000/svg">
<path d="M12.5002 17.5V13.3333C12.5002 13.1123 12.4124 12.9004 12.2561 12.7441C12.0998 12.5878 11.8878 12.5 11.6668 12.5H8.3335C8.11248 12.5 7.90052 12.5878 7.74424 12.7441C7.58796 12.9004 7.50016 13.1123 7.50016 13.3333V17.5M3.3335 9.125V15.8333C3.3335 16.2754 3.50909 16.6993 3.82165 17.0118C4.13421 17.3244 4.55814 17.5 5.00016 17.5H15.0002C15.4422 17.5 15.8661 17.3244 16.1787 17.0118C16.4912 16.6993 16.6668 16.2754 16.6668 15.8333V9.125M14.8118 8.59167C14.6381 8.42536 14.4069 8.33253 14.1664 8.33253C13.9259 8.33253 13.6947 8.42536 13.521 8.59167C13.1335 8.96126 12.6185 9.16746 12.083 9.16746C11.5475 9.16746 11.0326 8.96126 10.6451 8.59167C10.4714 8.42561 10.2404 8.33293 10.0001 8.33293C9.75983 8.33293 9.5288 8.42561 9.35512 8.59167C8.96759 8.96151 8.45248 9.16786 7.91679 9.16786C7.3811 9.16786 6.86599 8.96151 6.47846 8.59167C6.30474 8.42536 6.07353 8.33253 5.83304 8.33253C5.59255 8.33253 5.36134 8.42536 5.18762 8.59167C4.81333 8.94884 4.31952 9.15397 3.80231 9.16712C3.28511 9.18027 2.78151 9.00051 2.38954 8.66281C1.99758 8.32512 1.74529 7.85366 1.68178 7.3402C1.61827 6.82674 1.74808 6.30802 2.04596 5.885L4.45346 2.39833C4.60621 2.17293 4.81187 1.98838 5.05244 1.86083C5.29301 1.73328 5.56117 1.66662 5.83346 1.66667H14.1668C14.4383 1.66656 14.7057 1.73278 14.9458 1.85957C15.1858 1.98636 15.3913 2.16988 15.5443 2.39417L17.9568 5.8875C18.2547 6.31085 18.3844 6.82997 18.3205 7.3437C18.2566 7.85742 18.0037 8.32895 17.6111 8.66641C17.2185 9.00386 16.7143 9.18306 16.1969 9.16909C15.6794 9.15512 15.1856 8.94981 14.8118 8.59167Z" stroke="#0A0A0A" stroke-width="1.5" stroke-linecap="round" stroke-linejoin="round"/>
</svg>