<svg width="20" height="20" viewBox="0 0 20 20" fill="none" xmlns="http://www.w3.org/2000/svg">
<g clip-path="url(#clip0_24509_53980)">
<path d="M6.25008 6.66675C6.4802 6.66675 6.66675 6.4802 6.66675 6.25008C6.66675 6.01996 6.4802 5.83341 6.25008 5.83341C6.01996 5.83341 5.83341 6.01996 5.83341 6.25008C5.83341 6.4802 6.01996 6.66675 6.25008 6.66675Z" fill="#0A0A0A"/>
<path d="M10.4884 2.15508C10.1759 1.8425 9.75207 1.66684 9.31008 1.66675H3.33341C2.89139 1.66675 2.46746 1.84234 2.1549 2.1549C1.84234 2.46746 1.66675 2.89139 1.66675 3.33341V9.31008C1.66684 9.75207 1.8425 10.1759 2.15508 10.4884L9.40842 17.7417C9.78718 18.1181 10.2995 18.3294 10.8334 18.3294C11.3674 18.3294 11.8797 18.1181 12.2584 17.7417L17.7417 12.2584C18.1181 11.8797 18.3294 11.3674 18.3294 10.8334C18.3294 10.2995 18.1181 9.78718 17.7417 9.40842L10.4884 2.15508Z" stroke="#0A0A0A" stroke-width="1.5" stroke-linecap="round" stroke-linejoin="round"/>
<path d="M6.25008 6.66675C6.4802 6.66675 6.66675 6.4802 6.66675 6.25008C6.66675 6.01996 6.4802 5.83341 6.25008 5.83341C6.01996 5.83341 5.83341 6.01996 5.83341 6.25008C5.83341 6.4802 6.01996 6.66675 6.25008 6.66675Z" stroke="#0A0A0A" stroke-width="1.5" stroke-linecap="round" stroke-linejoin="round"/>
</g>
<defs>
<clipPath id="clip0_24509_53980">
<rect width="20" height="20" fill="white"/>
</clipPath>
</defs>
</svg>

