<svg width="20" height="20" viewBox="0 0 20 20" fill="none" xmlns="http://www.w3.org/2000/svg">
<path d="M10.8332 4.16675V5.83341M10.8332 14.1667V15.8334M10.8332 9.16675V10.8334M1.6665 7.50008C2.32955 7.50008 2.96543 7.76347 3.43427 8.23231C3.90311 8.70116 4.1665 9.33704 4.1665 10.0001C4.1665 10.6631 3.90311 11.299 3.43427 11.7678C2.96543 12.2367 2.32955 12.5001 1.6665 12.5001V14.1667C1.6665 14.6088 1.8421 15.0327 2.15466 15.3453C2.46722 15.6578 2.89114 15.8334 3.33317 15.8334H16.6665C17.1085 15.8334 17.5325 15.6578 17.845 15.3453C18.1576 15.0327 18.3332 14.6088 18.3332 14.1667V12.5001C17.6701 12.5001 17.0342 12.2367 16.5654 11.7678C16.0966 11.299 15.8332 10.6631 15.8332 10.0001C15.8332 9.33704 16.0966 8.70116 16.5654 8.23231C17.0342 7.76347 17.6701 7.50008 18.3332 7.50008V5.83341C18.3332 5.39139 18.1576 4.96746 17.845 4.6549C17.5325 4.34234 17.1085 4.16675 16.6665 4.16675H3.33317C2.89114 4.16675 2.46722 4.34234 2.15466 4.6549C1.8421 4.96746 1.6665 5.39139 1.6665 5.83341V7.50008Z" stroke="#171717" stroke-width="1.5" stroke-linecap="round" stroke-linejoin="round"/>
</svg>

