<svg width="20" height="20" viewBox="0 0 20 20" fill="none" xmlns="http://www.w3.org/2000/svg">
<path d="M10.8334 4.16663V5.83329M10.8334 14.1666V15.8333M10.8334 9.16663V10.8333M1.66675 7.49996C2.32979 7.49996 2.96567 7.76335 3.43451 8.23219C3.90336 8.70103 4.16675 9.33692 4.16675 9.99996C4.16675 10.663 3.90336 11.2989 3.43451 11.7677C2.96567 12.2366 2.32979 12.5 1.66675 12.5V14.1666C1.66675 14.6087 1.84234 15.0326 2.1549 15.3451C2.46746 15.6577 2.89139 15.8333 3.33341 15.8333H16.6667C17.1088 15.8333 17.5327 15.6577 17.8453 15.3451C18.1578 15.0326 18.3334 14.6087 18.3334 14.1666V12.5C17.6704 12.5 17.0345 12.2366 16.5656 11.7677C16.0968 11.2989 15.8334 10.663 15.8334 9.99996C15.8334 9.33692 16.0968 8.70103 16.5656 8.23219C17.0345 7.76335 17.6704 7.49996 18.3334 7.49996V5.83329C18.3334 5.39127 18.1578 4.96734 17.8453 4.65478C17.5327 4.34222 17.1088 4.16663 16.6667 4.16663H3.33341C2.89139 4.16663 2.46746 4.34222 2.1549 4.65478C1.84234 4.96734 1.66675 5.39127 1.66675 5.83329V7.49996Z" stroke="#0A0A0A" stroke-width="1.33" stroke-linecap="round" stroke-linejoin="round"/>
</svg>
