<svg width="20" height="20" viewBox="0 0 20 20" fill="none" xmlns="http://www.w3.org/2000/svg">
<path d="M1.6665 17.5C1.66643 16.2169 2.03662 14.9611 2.73262 13.8832C3.42863 12.8053 4.4209 11.9512 5.59034 11.4233C6.75977 10.8954 8.0567 10.7162 9.32547 10.9072C10.5942 11.0982 11.7809 11.6512 12.7432 12.5M13.3332 15.8333L14.9998 17.5L18.3332 14.1667M12.4998 6.66667C12.4998 8.96785 10.6344 10.8333 8.33317 10.8333C6.03198 10.8333 4.1665 8.96785 4.1665 6.66667C4.1665 4.36548 6.03198 2.5 8.33317 2.5C10.6344 2.5 12.4998 4.36548 12.4998 6.66667Z" stroke="#0A0A0A" stroke-width="1.5" stroke-linecap="round" stroke-linejoin="round"/>
</svg>
