<svg width="20" height="20" viewBox="0 0 20 20" fill="none" xmlns="http://www.w3.org/2000/svg">
<g clip-path="url(#clip0_24835_4446)">
<path d="M13.3336 1.66667L11.417 3.58333C10.9589 4.05066 10.7023 4.67895 10.7023 5.33333C10.7023 5.98771 10.9589 6.61601 11.417 7.08333L12.917 8.58333C13.3843 9.0414 14.0126 9.29798 14.667 9.29798C15.3213 9.29798 15.9496 9.0414 16.417 8.58333L18.3336 6.66667M12.4997 12.5L2.74973 2.75C2.41713 3.07588 2.1529 3.46485 1.97252 3.89413C1.79213 4.32341 1.69922 4.78436 1.69922 5.25C1.69922 5.71564 1.79213 6.1766 1.97252 6.60588C2.1529 7.03515 2.41713 7.42412 2.74973 7.75L8.83306 13.8333C9.4164 14.4167 10.4997 14.4167 11.1664 13.8333L12.4997 12.5ZM12.4997 12.5L18.3331 18.3333M1.74967 18.1667L7.08301 12.9167M15.8333 4.16667L10 10" stroke="#0A0A0A" stroke-width="1.5" stroke-linecap="round" stroke-linejoin="round"/>
</g>
<defs>
<clipPath id="clip0_24835_4446">
<rect width="20" height="20" fill="white"/>
</clipPath>
</defs>
</svg>