<svg width="20" height="20" viewBox="0 0 20 20" fill="none" xmlns="http://www.w3.org/2000/svg">
<path d="M8.49992 5.25003L5.24992 8.50003M5.83341 9.99999C5.83341 11.1506 4.90067 12.0833 3.75008 12.0833C2.59949 12.0833 1.66675 11.1506 1.66675 9.99999C1.66675 8.8494 2.59949 7.91666 3.75008 7.91666C4.90067 7.91666 5.83341 8.8494 5.83341 9.99999ZM5.83341 9.99999H14.1667M14.1667 9.99999C14.1667 11.1506 15.0995 12.0833 16.2501 12.0833C17.4007 12.0833 18.3334 11.1506 18.3334 9.99999C18.3334 8.8494 17.4007 7.91666 16.2501 7.91666C15.0995 7.91666 14.1667 8.8494 14.1667 9.99999ZM11.4999 14.75L14.7499 11.5M12.0834 3.74999C12.0834 4.90058 11.1507 5.83332 10.0001 5.83332C8.84949 5.83332 7.91675 4.90058 7.91675 3.74999C7.91675 2.5994 8.84949 1.66666 10.0001 1.66666C11.1507 1.66666 12.0834 2.5994 12.0834 3.74999ZM12.0834 16.25C12.0834 17.4006 11.1507 18.3333 10.0001 18.3333C8.84949 18.3333 7.91675 17.4006 7.91675 16.25C7.91675 15.0994 8.84949 14.1667 10.0001 14.1667C11.1507 14.1667 12.0834 15.0994 12.0834 16.25Z" stroke="#0A0A0A" stroke-width="1.5" stroke-linecap="round" stroke-linejoin="round"/>
</svg>
