<svg width="20" height="20" viewBox="0 0 20 20" fill="none" xmlns="http://www.w3.org/2000/svg">
<path d="M9.99984 16.6667H10.0082M7.08317 13.691C7.86204 12.9275 8.9092 12.4999 9.99984 12.4999C11.0905 12.4999 12.1376 12.9275 12.9165 13.691M4.1665 10.7159C5.34819 9.55746 6.84801 8.77709 8.47484 8.4742M15.8331 10.7159C15.3313 10.224 14.7694 9.79755 14.1606 9.4467M1.6665 7.35008C2.697 6.42848 3.87325 5.68421 5.14734 5.14758M18.3331 7.35001C17.062 6.21319 15.5718 5.34846 13.9541 4.80903C12.3364 4.26961 10.6254 4.06689 8.92643 4.21334M1.6665 1.66675L18.3332 18.3334" stroke="#0A0A0A" stroke-width="1.5" stroke-linecap="round" stroke-linejoin="round"/>
</svg>
